<svg width="698" height="302" viewBox="0 0 698 302" fill="none" xmlns="http://www.w3.org/2000/svg">
<g clip-path="url(#clip0_297_124)">
<path d="M278.145 239.837C271.855 239.837 266.912 234.731 266.912 228.261C266.912 221.792 271.861 216.723 278.145 216.723C279.816 216.773 281.457 217.17 282.967 217.889C284.476 218.608 285.82 219.632 286.913 220.898L290.033 216.867C286.871 213.664 282.573 211.844 278.076 211.804C275.897 211.764 273.732 212.162 271.71 212.976C269.687 213.79 267.848 215.002 266.302 216.541C264.756 218.08 263.535 219.914 262.71 221.935C261.886 223.956 261.475 226.122 261.502 228.305C261.502 237.731 268.653 244.994 277.871 244.994C282.482 244.873 286.861 242.937 290.058 239.606L286.907 235.949C284.603 238.339 281.46 239.734 278.145 239.837Z" fill="black"/>
<path d="M310.689 211.942L296.792 244.763H302.321L305.335 237.356H321.204L324.218 244.763H329.885L316.156 211.942H310.689ZM307.313 232.431L313.248 217.848L319.182 232.431H307.313Z" fill="black"/>
<path d="M356.4 233.743L346.016 211.942H339.72V244.763H344.712V220.242L354.647 241.337H358.11L368.045 220.242L368.095 244.763H372.988V211.942H366.741L356.4 233.743Z" fill="black"/>
<path d="M399.503 211.942H386.935V244.763H392.239V234.874H399.478C407.391 234.874 411.959 230.555 411.959 223.149C411.959 216.023 407.416 211.942 399.503 211.942ZM399.279 229.905H392.264V216.917H399.279C404.134 216.917 406.879 218.973 406.879 223.286C406.904 227.743 404.134 229.905 399.279 229.905Z" fill="black"/>
<path d="M444.347 231.168C444.347 236.75 441.158 240.025 436.029 240.025C430.899 240.025 427.573 236.7 427.573 231.168V211.942H422.268V231.168C422.268 239.743 427.485 245 435.997 245C444.509 245 449.664 239.743 449.664 231.168V211.942H444.347V231.168Z" fill="black"/>
<path d="M467.686 220.336C467.686 218.129 469.715 216.911 472.816 216.911C475.194 216.911 478.613 217.804 482.033 219.961L484.236 215.085C480.977 212.897 477.145 211.723 473.222 211.71C466.388 211.71 461.758 215.223 461.758 220.848C461.758 232.524 478.751 228.449 478.751 235.762C478.751 238.293 476.548 239.75 472.86 239.75C469.49 239.75 465.44 238.056 462.201 234.962L459.911 239.75C463.386 243.048 467.979 244.906 472.766 244.95C479.693 244.95 484.623 241.337 484.623 235.481C484.685 223.667 467.686 227.511 467.686 220.336Z" fill="black"/>
<path d="M394.124 191.453C402.245 191.414 410.172 188.967 416.905 184.421C423.639 179.874 428.877 173.431 431.957 165.905C435.038 158.38 435.824 150.109 434.216 142.136C432.608 134.163 428.678 126.847 422.922 121.109C417.166 115.372 409.842 111.471 401.874 109.899C393.906 108.327 385.652 109.154 378.154 112.276C370.655 115.399 364.248 120.676 359.741 127.442C355.234 134.208 352.83 142.16 352.831 150.294C352.843 155.712 353.921 161.075 356.003 166.076C358.085 171.077 361.13 175.619 364.965 179.441C368.799 183.263 373.348 186.291 378.351 188.352C383.355 190.413 388.714 191.467 394.124 191.453ZM394.124 128.723C398.378 128.743 402.53 130.025 406.058 132.406C409.585 134.788 412.329 138.162 413.943 142.104C415.558 146.046 415.97 150.379 415.128 154.555C414.286 158.732 412.227 162.565 409.213 165.57C406.198 168.576 402.361 170.62 398.188 171.444C394.014 172.268 389.69 171.835 385.762 170.2C381.834 168.565 378.477 165.801 376.116 162.257C373.755 158.713 372.495 154.548 372.495 150.287C372.508 144.556 374.793 139.065 378.848 135.021C382.903 130.977 388.396 128.712 394.118 128.723H394.124Z" fill="black"/>
<path d="M261.845 191.453H281.502V151.45C281.502 139.299 291.188 129.448 303.132 129.448C315.076 129.448 324.761 139.299 324.761 151.45V191.453H344.425V151.45C344.425 128.248 325.935 109.441 303.132 109.441C280.329 109.441 261.845 128.255 261.845 151.45V191.453Z" fill="black"/>
<path d="M217.27 152.006C217.275 149.35 216.779 146.716 215.809 144.243L202.492 109.441H181.337L204.888 170.951C212.202 167.964 217.27 160.663 217.27 152.006Z" fill="black"/>
<path d="M484.592 191.453L516 109.441H494.839L463.43 191.453H484.592Z" fill="black"/>
<path d="M467.961 152.006C467.969 149.347 467.474 146.711 466.501 144.237L453.196 109.441H432.028L455.58 170.945C462.894 167.964 467.961 160.663 467.961 152.006Z" fill="black"/>
<path d="M244.135 109.441L192.301 244.787H213.463L265.296 109.441H244.135Z" fill="black"/>
<path d="M209.85 80.4516C209.85 85.8957 205.537 89.0459 197.269 89.0459H181V57.5376H196.37C204.233 57.5376 208.277 60.8253 208.277 65.7506C208.303 67.1815 207.923 68.5905 207.182 69.8141C206.441 71.0376 205.369 72.0257 204.09 72.6636C207.603 73.7887 209.85 76.4889 209.85 80.4516ZM188.233 63.0317V70.4572H195.472C199.016 70.4572 200.951 69.2071 200.951 66.707C200.951 64.2068 199.016 63.0192 195.472 63.0192L188.233 63.0317ZM202.523 79.6828C202.523 77.0014 200.501 75.7513 196.726 75.7513H188.233V83.5518H196.726C200.501 83.5518 202.523 82.383 202.523 79.6828Z" fill="black"/>
<path d="M213.394 73.2948C213.394 63.9317 220.677 57 230.605 57C240.534 57 247.817 63.8755 247.817 73.2948C247.817 82.7142 240.49 89.5834 230.605 89.5834C220.72 89.5834 213.394 82.6267 213.394 73.2948ZM240.447 73.2948C240.447 67.3069 236.222 63.2129 230.605 63.2129C224.989 63.2129 220.764 67.3069 220.764 73.2948C220.764 79.2827 224.989 83.3768 230.605 83.3768C236.222 83.3768 240.447 79.2765 240.447 73.2948Z" fill="black"/>
<path d="M273.359 89.0459L267.293 80.2954H260.572V89.0459H253.296V57.5376H266.912C275.312 57.5376 280.573 61.9129 280.573 68.9696C280.573 73.6949 278.189 77.1639 274.101 78.9203L281.153 89.0459H273.359ZM266.494 63.4817H260.56V74.4637H266.494C270.944 74.4637 273.19 72.3948 273.19 68.9696C273.19 65.5444 270.956 63.4817 266.494 63.4817Z" fill="black"/>
<path d="M286.32 57.5376H300.605C310.895 57.5376 317.953 63.7505 317.953 73.2949C317.953 82.8393 310.895 89.0459 300.605 89.0459H286.32V57.5376ZM300.249 83.058C306.489 83.058 310.583 79.3078 310.583 73.2949C310.583 67.282 306.496 63.5255 300.249 63.5255H293.596V83.058H300.249Z" fill="black"/>
<path d="M347.782 83.1956V89.0459H323.445V57.5376H347.214V63.3942H330.677V70.2322H345.28V75.9013H330.677V83.1956H347.782Z" fill="black"/>
<path d="M374.292 82.2955H359.689L356.906 89.0459H349.417L363.465 57.5376H370.654L384.72 89.0459H377.081L374.292 82.2955ZM372.002 76.7576L367.009 64.6943L362.017 76.7576H372.002Z" fill="black"/>
<path d="M387.054 75.1825V57.5376H394.33V74.9138C394.33 80.9017 396.938 83.3768 401.344 83.3768C405.75 83.3768 408.352 80.8766 408.352 74.9138V57.5376H415.541V75.1825C415.541 84.4519 410.237 89.5585 401.294 89.5585C392.352 89.5585 387.054 84.4519 387.054 75.1825Z" fill="black"/>
<path d="M442.094 89.0459L434.5 78.1077L427.011 89.0459H418.686L430.325 73.0199L419.267 57.5376H427.535L434.768 67.757L441.851 57.5376H449.714L438.768 72.7511L450.5 89.0459H442.094Z" fill="black"/>
</g>
<defs>
<clipPath id="clip0_297_124">
<rect width="335" height="188" fill="white" transform="translate(181 57)"/>
</clipPath>
</defs>
</svg>
