<svg width="848" height="390" viewBox="0 0 848 390" fill="none" xmlns="http://www.w3.org/2000/svg">
<g filter="url(#filter0_d_303_100)">
<mask id="path-1-outside-1_303_100" maskUnits="userSpaceOnUse" x="-4" y="-5" width="846" height="389" fill="black">
<rect fill="white" x="-4" y="-5" width="846" height="389"/>
<path d="M7.1875 90.4716V60.9261L110.028 17.7443V50.0597L42.1307 75.4148L43.196 73.8523V77.6165L42.1307 75.983L110.028 101.409V133.653L7.1875 90.4716ZM181.282 148V2.54545H241.367C252.257 2.54545 261.656 4.67613 269.563 8.9375C277.518 13.1515 283.649 19.0464 287.958 26.6222C292.267 34.1506 294.421 42.91 294.421 52.9006C294.421 62.9384 292.219 71.7216 287.816 79.25C283.46 86.7311 277.234 92.5312 269.137 96.6506C261.04 100.77 251.429 102.83 240.302 102.83H203.228V75.1307H233.768C239.071 75.1307 243.498 74.2074 247.049 72.3608C250.647 70.5142 253.37 67.9337 255.217 64.6193C257.063 61.2576 257.987 57.3513 257.987 52.9006C257.987 48.4025 257.063 44.5199 255.217 41.2528C253.37 37.9384 250.647 35.3816 247.049 33.5824C243.451 31.7831 239.023 30.8835 233.768 30.8835H216.438V148H181.282ZM449.038 75.2727C449.038 91.2765 445.96 104.842 439.805 115.969C433.649 127.096 425.316 135.547 414.805 141.324C404.341 147.1 392.598 149.989 379.577 149.989C366.509 149.989 354.743 147.077 344.279 141.253C333.815 135.429 325.505 126.977 319.35 115.898C313.242 104.771 310.188 91.2292 310.188 75.2727C310.188 59.2689 313.242 45.7036 319.35 34.5767C325.505 23.4498 333.815 14.9981 344.279 9.22159C354.743 3.44507 366.509 0.556813 379.577 0.556813C392.598 0.556813 404.341 3.44507 414.805 9.22159C425.316 14.9981 433.649 23.4498 439.805 34.5767C445.96 45.7036 449.038 59.2689 449.038 75.2727ZM413.1 75.2727C413.1 65.803 411.751 57.8011 409.052 51.267C406.4 44.7329 402.565 39.785 397.546 36.4233C392.575 33.0615 386.585 31.3807 379.577 31.3807C372.617 31.3807 366.628 33.0615 361.609 36.4233C356.59 39.785 352.731 44.7329 350.032 51.267C347.38 57.8011 346.055 65.803 346.055 75.2727C346.055 84.7424 347.38 92.7443 350.032 99.2784C352.731 105.812 356.59 110.76 361.609 114.122C366.628 117.484 372.617 119.165 379.577 119.165C386.585 119.165 392.575 117.484 397.546 114.122C402.565 110.76 406.4 105.812 409.052 99.2784C411.751 92.7443 413.1 84.7424 413.1 75.2727ZM469.563 148V2.54545H529.648C540.539 2.54545 549.937 4.51041 557.844 8.44034C565.799 12.3229 571.931 17.91 576.239 25.2017C580.548 32.446 582.702 41.0398 582.702 50.983C582.702 61.0682 580.501 69.6383 576.097 76.6932C571.694 83.7008 565.444 89.0511 557.347 92.7443C549.251 96.3902 539.663 98.2131 528.583 98.2131H490.586V70.5142H522.049C527.352 70.5142 531.779 69.8276 535.33 68.4545C538.929 67.0341 541.651 64.9034 543.498 62.0625C545.344 59.1742 546.268 55.4811 546.268 50.983C546.268 46.4848 545.344 42.768 543.498 39.8324C541.651 36.8494 538.929 34.6241 535.33 33.1562C531.732 31.6411 527.305 30.8835 522.049 30.8835H504.719V148H469.563ZM551.452 81.5227L587.674 148H549.322L513.81 81.5227H551.452ZM597.227 31.0966V2.54545H720.167V31.0966H676.062V148H641.403V31.0966H597.227ZM1.00852 357V211.545H100.298V240.097H36.1648V269.926H93.9773V298.548H36.1648V357H1.00852ZM255.288 284.273C255.288 300.277 252.21 313.842 246.055 324.969C239.899 336.096 231.566 344.547 221.055 350.324C210.591 356.1 198.848 358.989 185.827 358.989C172.759 358.989 160.993 356.077 150.529 350.253C140.065 344.429 131.755 335.977 125.6 324.898C119.492 313.771 116.438 300.229 116.438 284.273C116.438 268.269 119.492 254.704 125.6 243.577C131.755 232.45 140.065 223.998 150.529 218.222C160.993 212.445 172.759 209.557 185.827 209.557C198.848 209.557 210.591 212.445 221.055 218.222C231.566 223.998 239.899 232.45 246.055 243.577C252.21 254.704 255.288 268.269 255.288 284.273ZM219.35 284.273C219.35 274.803 218.001 266.801 215.302 260.267C212.65 253.733 208.815 248.785 203.796 245.423C198.825 242.062 192.835 240.381 185.827 240.381C178.867 240.381 172.878 242.062 167.859 245.423C162.84 248.785 158.981 253.733 156.282 260.267C153.63 266.801 152.305 274.803 152.305 284.273C152.305 293.742 153.63 301.744 156.282 308.278C158.981 314.812 162.84 319.76 167.859 323.122C172.878 326.484 178.867 328.165 185.827 328.165C192.835 328.165 198.825 326.484 203.796 323.122C208.815 319.76 212.65 314.812 215.302 308.278C218.001 301.744 219.35 293.742 219.35 284.273ZM275.813 357V211.545H310.969V328.449H371.481V357H275.813ZM424.837 211.545V357H389.68V211.545H424.837ZM584.194 284.273C584.194 300.277 581.116 313.842 574.961 324.969C568.806 336.096 560.472 344.547 549.961 350.324C539.497 356.1 527.755 358.989 514.734 358.989C501.665 358.989 489.899 356.077 479.435 350.253C468.971 344.429 460.662 335.977 454.506 324.898C448.398 313.771 445.344 300.229 445.344 284.273C445.344 268.269 448.398 254.704 454.506 243.577C460.662 232.45 468.971 223.998 479.435 218.222C489.899 212.445 501.665 209.557 514.734 209.557C527.755 209.557 539.497 212.445 549.961 218.222C560.472 223.998 568.806 232.45 574.961 243.577C581.116 254.704 584.194 268.269 584.194 284.273ZM548.256 284.273C548.256 274.803 546.907 266.801 544.208 260.267C541.557 253.733 537.721 248.785 532.702 245.423C527.731 242.062 521.741 240.381 514.734 240.381C507.773 240.381 501.784 242.062 496.765 245.423C491.746 248.785 487.887 253.733 485.188 260.267C482.537 266.801 481.211 274.803 481.211 284.273C481.211 293.742 482.537 301.744 485.188 308.278C487.887 314.812 491.746 319.76 496.765 323.122C501.784 326.484 507.773 328.165 514.734 328.165C521.741 328.165 527.731 326.484 532.702 323.122C537.721 319.76 541.557 314.812 544.208 308.278C546.907 301.744 548.256 293.742 548.256 284.273ZM715.018 204.727L668.143 378.875H638.526L685.401 204.727H715.018ZM836.982 313.108L734.141 356.29V324.045L802.038 298.619L801.044 300.253V296.489L802.038 298.051L734.141 272.696V240.381L836.982 283.562V313.108Z"/>
</mask>
<path d="M7.1875 90.4716V60.9261L110.028 17.7443V50.0597L42.1307 75.4148L43.196 73.8523V77.6165L42.1307 75.983L110.028 101.409V133.653L7.1875 90.4716ZM181.282 148V2.54545H241.367C252.257 2.54545 261.656 4.67613 269.563 8.9375C277.518 13.1515 283.649 19.0464 287.958 26.6222C292.267 34.1506 294.421 42.91 294.421 52.9006C294.421 62.9384 292.219 71.7216 287.816 79.25C283.46 86.7311 277.234 92.5312 269.137 96.6506C261.04 100.77 251.429 102.83 240.302 102.83H203.228V75.1307H233.768C239.071 75.1307 243.498 74.2074 247.049 72.3608C250.647 70.5142 253.37 67.9337 255.217 64.6193C257.063 61.2576 257.987 57.3513 257.987 52.9006C257.987 48.4025 257.063 44.5199 255.217 41.2528C253.37 37.9384 250.647 35.3816 247.049 33.5824C243.451 31.7831 239.023 30.8835 233.768 30.8835H216.438V148H181.282ZM449.038 75.2727C449.038 91.2765 445.96 104.842 439.805 115.969C433.649 127.096 425.316 135.547 414.805 141.324C404.341 147.1 392.598 149.989 379.577 149.989C366.509 149.989 354.743 147.077 344.279 141.253C333.815 135.429 325.505 126.977 319.35 115.898C313.242 104.771 310.188 91.2292 310.188 75.2727C310.188 59.2689 313.242 45.7036 319.35 34.5767C325.505 23.4498 333.815 14.9981 344.279 9.22159C354.743 3.44507 366.509 0.556813 379.577 0.556813C392.598 0.556813 404.341 3.44507 414.805 9.22159C425.316 14.9981 433.649 23.4498 439.805 34.5767C445.96 45.7036 449.038 59.2689 449.038 75.2727ZM413.1 75.2727C413.1 65.803 411.751 57.8011 409.052 51.267C406.4 44.7329 402.565 39.785 397.546 36.4233C392.575 33.0615 386.585 31.3807 379.577 31.3807C372.617 31.3807 366.628 33.0615 361.609 36.4233C356.59 39.785 352.731 44.7329 350.032 51.267C347.38 57.8011 346.055 65.803 346.055 75.2727C346.055 84.7424 347.38 92.7443 350.032 99.2784C352.731 105.812 356.59 110.76 361.609 114.122C366.628 117.484 372.617 119.165 379.577 119.165C386.585 119.165 392.575 117.484 397.546 114.122C402.565 110.76 406.4 105.812 409.052 99.2784C411.751 92.7443 413.1 84.7424 413.1 75.2727ZM469.563 148V2.54545H529.648C540.539 2.54545 549.937 4.51041 557.844 8.44034C565.799 12.3229 571.931 17.91 576.239 25.2017C580.548 32.446 582.702 41.0398 582.702 50.983C582.702 61.0682 580.501 69.6383 576.097 76.6932C571.694 83.7008 565.444 89.0511 557.347 92.7443C549.251 96.3902 539.663 98.2131 528.583 98.2131H490.586V70.5142H522.049C527.352 70.5142 531.779 69.8276 535.33 68.4545C538.929 67.0341 541.651 64.9034 543.498 62.0625C545.344 59.1742 546.268 55.4811 546.268 50.983C546.268 46.4848 545.344 42.768 543.498 39.8324C541.651 36.8494 538.929 34.6241 535.33 33.1562C531.732 31.6411 527.305 30.8835 522.049 30.8835H504.719V148H469.563ZM551.452 81.5227L587.674 148H549.322L513.81 81.5227H551.452ZM597.227 31.0966V2.54545H720.167V31.0966H676.062V148H641.403V31.0966H597.227ZM1.00852 357V211.545H100.298V240.097H36.1648V269.926H93.9773V298.548H36.1648V357H1.00852ZM255.288 284.273C255.288 300.277 252.21 313.842 246.055 324.969C239.899 336.096 231.566 344.547 221.055 350.324C210.591 356.1 198.848 358.989 185.827 358.989C172.759 358.989 160.993 356.077 150.529 350.253C140.065 344.429 131.755 335.977 125.6 324.898C119.492 313.771 116.438 300.229 116.438 284.273C116.438 268.269 119.492 254.704 125.6 243.577C131.755 232.45 140.065 223.998 150.529 218.222C160.993 212.445 172.759 209.557 185.827 209.557C198.848 209.557 210.591 212.445 221.055 218.222C231.566 223.998 239.899 232.45 246.055 243.577C252.21 254.704 255.288 268.269 255.288 284.273ZM219.35 284.273C219.35 274.803 218.001 266.801 215.302 260.267C212.65 253.733 208.815 248.785 203.796 245.423C198.825 242.062 192.835 240.381 185.827 240.381C178.867 240.381 172.878 242.062 167.859 245.423C162.84 248.785 158.981 253.733 156.282 260.267C153.63 266.801 152.305 274.803 152.305 284.273C152.305 293.742 153.63 301.744 156.282 308.278C158.981 314.812 162.84 319.76 167.859 323.122C172.878 326.484 178.867 328.165 185.827 328.165C192.835 328.165 198.825 326.484 203.796 323.122C208.815 319.76 212.65 314.812 215.302 308.278C218.001 301.744 219.35 293.742 219.35 284.273ZM275.813 357V211.545H310.969V328.449H371.481V357H275.813ZM424.837 211.545V357H389.68V211.545H424.837ZM584.194 284.273C584.194 300.277 581.116 313.842 574.961 324.969C568.806 336.096 560.472 344.547 549.961 350.324C539.497 356.1 527.755 358.989 514.734 358.989C501.665 358.989 489.899 356.077 479.435 350.253C468.971 344.429 460.662 335.977 454.506 324.898C448.398 313.771 445.344 300.229 445.344 284.273C445.344 268.269 448.398 254.704 454.506 243.577C460.662 232.45 468.971 223.998 479.435 218.222C489.899 212.445 501.665 209.557 514.734 209.557C527.755 209.557 539.497 212.445 549.961 218.222C560.472 223.998 568.806 232.45 574.961 243.577C581.116 254.704 584.194 268.269 584.194 284.273ZM548.256 284.273C548.256 274.803 546.907 266.801 544.208 260.267C541.557 253.733 537.721 248.785 532.702 245.423C527.731 242.062 521.741 240.381 514.734 240.381C507.773 240.381 501.784 242.062 496.765 245.423C491.746 248.785 487.887 253.733 485.188 260.267C482.537 266.801 481.211 274.803 481.211 284.273C481.211 293.742 482.537 301.744 485.188 308.278C487.887 314.812 491.746 319.76 496.765 323.122C501.784 326.484 507.773 328.165 514.734 328.165C521.741 328.165 527.731 326.484 532.702 323.122C537.721 319.76 541.557 314.812 544.208 308.278C546.907 301.744 548.256 293.742 548.256 284.273ZM715.018 204.727L668.143 378.875H638.526L685.401 204.727H715.018ZM836.982 313.108L734.141 356.29V324.045L802.038 298.619L801.044 300.253V296.489L802.038 298.051L734.141 272.696V240.381L836.982 283.562V313.108Z" fill="#CECECE"/>
<path d="M7.1875 90.4716H2.1875V93.795L5.25177 95.0817L7.1875 90.4716ZM7.1875 60.9261L5.25177 56.316L2.1875 57.6027V60.9261H7.1875ZM110.028 17.7443H115.028V10.222L108.093 13.1342L110.028 17.7443ZM110.028 50.0597L111.778 54.7437L115.028 53.5298V50.0597H110.028ZM42.1307 75.4148L37.9995 72.5981L29.1299 85.6069L43.8799 80.0988L42.1307 75.4148ZM43.196 73.8523H48.196V57.6433L39.0649 71.0356L43.196 73.8523ZM43.196 77.6165L39.008 80.3478L48.196 94.4361V77.6165H43.196ZM42.1307 75.983L43.8842 71.3005L29.6251 65.9608L37.9426 78.7143L42.1307 75.983ZM110.028 101.409H115.028V97.9424L111.782 96.7266L110.028 101.409ZM110.028 133.653L108.093 138.264L115.028 141.176V133.653H110.028ZM12.1875 90.4716V60.9261H2.1875V90.4716H12.1875ZM9.12323 65.5362L111.964 22.3544L108.093 13.1342L5.25177 56.316L9.12323 65.5362ZM105.028 17.7443V50.0597H115.028V17.7443H105.028ZM108.279 45.3756L40.3815 70.7307L43.8799 80.0988L111.778 54.7437L108.279 45.3756ZM46.2618 78.2315L47.3272 76.669L39.0649 71.0356L37.9995 72.5981L46.2618 78.2315ZM38.196 73.8523V77.6165H48.196V73.8523H38.196ZM47.3841 74.8851L46.3187 73.2516L37.9426 78.7143L39.008 80.3478L47.3841 74.8851ZM40.3772 80.6654L108.275 106.092L111.782 96.7266L43.8842 71.3005L40.3772 80.6654ZM105.028 101.409V133.653H115.028V101.409H105.028ZM111.964 129.043L9.12323 85.8615L5.25177 95.0817L108.093 138.264L111.964 129.043ZM181.282 148H176.282V153H181.282V148ZM181.282 2.54545V-2.45455H176.282V2.54545H181.282ZM269.563 8.9375L267.191 13.339L267.207 13.3475L267.223 13.3558L269.563 8.9375ZM287.958 26.6222L283.612 29.0941L283.619 29.1058L287.958 26.6222ZM287.816 79.25L283.5 76.7256L283.495 76.734L287.816 79.25ZM269.137 96.6506L271.404 101.107L271.404 101.107L269.137 96.6506ZM203.228 102.83H198.228V107.83H203.228V102.83ZM203.228 75.1307V70.1307H198.228V75.1307H203.228ZM247.049 72.3608L244.766 67.9123L244.754 67.9185L244.742 67.9247L247.049 72.3608ZM255.217 64.6193L259.584 67.0528L259.592 67.0397L259.599 67.0265L255.217 64.6193ZM255.217 41.2528L250.849 43.6864L250.856 43.6998L250.864 43.7131L255.217 41.2528ZM247.049 33.5824L244.813 38.0545L244.813 38.0545L247.049 33.5824ZM216.438 30.8835V25.8835H211.438V30.8835H216.438ZM216.438 148V153H221.438V148H216.438ZM186.282 148V2.54545H176.282V148H186.282ZM181.282 7.54545H241.367V-2.45455H181.282V7.54545ZM241.367 7.54545C251.604 7.54545 260.152 9.54568 267.191 13.339L271.935 4.53599C263.16 -0.193408 252.911 -2.45455 241.367 -2.45455V7.54545ZM267.223 13.3558C274.366 17.1403 279.789 22.3727 283.612 29.0941L292.304 24.1502C287.51 15.7201 280.669 9.16276 271.904 4.5192L267.223 13.3558ZM283.619 29.1058C287.432 35.7697 289.421 43.6474 289.421 52.9006H299.421C299.421 42.1727 297.101 32.5314 292.298 24.1385L283.619 29.1058ZM289.421 52.9006C289.421 62.1871 287.392 70.0724 283.5 76.7256L292.132 81.7744C297.047 73.3708 299.421 63.6898 299.421 52.9006H289.421ZM283.495 76.734C279.647 83.3422 274.154 88.4882 266.87 92.1942L271.404 101.107C280.313 96.5743 287.273 90.1199 292.137 81.766L283.495 76.734ZM266.87 92.1942C259.616 95.8846 250.815 97.8295 240.302 97.8295V107.83C252.042 107.83 262.465 105.655 271.404 101.107L266.87 92.1942ZM240.302 97.8295H203.228V107.83H240.302V97.8295ZM208.228 102.83V75.1307H198.228V102.83H208.228ZM203.228 80.1307H233.768V70.1307H203.228V80.1307ZM233.768 80.1307C239.623 80.1307 244.899 79.1145 249.356 76.7969L244.742 67.9247C242.097 69.3003 238.518 70.1307 233.768 70.1307V80.1307ZM249.332 76.8093C253.748 74.543 257.225 71.2881 259.584 67.0528L250.849 62.1858C249.515 64.5794 247.547 66.4854 244.766 67.9123L249.332 76.8093ZM259.599 67.0265C261.912 62.8165 262.987 58.057 262.987 52.9006H252.987C252.987 56.6457 252.215 59.6986 250.834 62.2121L259.599 67.0265ZM262.987 52.9006C262.987 47.7114 261.917 42.9463 259.569 38.7926L250.864 43.7131C252.209 46.0935 252.987 49.0935 252.987 52.9006H262.987ZM259.584 38.8193C257.218 34.5721 253.726 31.3306 249.285 29.1103L244.813 38.0545C247.569 39.4327 249.522 41.3047 250.849 43.6864L259.584 38.8193ZM249.285 29.1103C244.813 26.8742 239.571 25.8835 233.768 25.8835V35.8835C238.476 35.8835 242.088 36.6921 244.813 38.0545L249.285 29.1103ZM233.768 25.8835H216.438V35.8835H233.768V25.8835ZM211.438 30.8835V148H221.438V30.8835H211.438ZM216.438 143H181.282V153H216.438V143ZM439.805 115.969L435.43 113.548L435.43 113.548L439.805 115.969ZM414.805 141.324L412.397 136.942L412.388 136.947L414.805 141.324ZM344.279 141.253L346.711 136.884L346.711 136.884L344.279 141.253ZM319.35 115.898L314.967 118.304L314.973 118.315L314.979 118.326L319.35 115.898ZM319.35 34.5767L314.975 32.1564L314.971 32.1635L314.967 32.1707L319.35 34.5767ZM344.279 9.22159L346.696 13.5989L346.696 13.5989L344.279 9.22159ZM414.805 9.22159L412.388 13.5989L412.397 13.6035L414.805 9.22159ZM439.805 34.5767L435.43 36.997L435.43 36.997L439.805 34.5767ZM409.052 51.267L404.419 53.1471L404.425 53.1615L404.431 53.1758L409.052 51.267ZM397.546 36.4233L394.745 40.5652L394.755 40.5714L394.764 40.5775L397.546 36.4233ZM361.609 36.4233L364.391 40.5775L364.391 40.5775L361.609 36.4233ZM350.032 51.267L345.411 49.3582L345.405 49.3726L345.399 49.387L350.032 51.267ZM350.032 99.2784L345.399 101.158L345.405 101.173L345.411 101.187L350.032 99.2784ZM361.609 114.122L364.391 109.968L364.391 109.968L361.609 114.122ZM397.546 114.122L394.764 109.968L394.755 109.974L394.745 109.98L397.546 114.122ZM409.052 99.2784L404.431 97.3696L404.425 97.3839L404.419 97.3983L409.052 99.2784ZM444.038 75.2727C444.038 90.6449 441.082 103.33 435.43 113.548L444.18 118.389C450.838 106.354 454.038 91.9081 454.038 75.2727H444.038ZM435.43 113.548C429.703 123.901 422.03 131.648 412.397 136.942L417.213 145.706C428.603 139.447 437.596 130.29 444.18 118.389L435.43 113.548ZM412.388 136.947C402.729 142.279 391.831 144.989 379.577 144.989V154.989C393.366 154.989 405.952 151.922 417.221 145.701L412.388 136.947ZM379.577 144.989C367.281 144.989 356.364 142.257 346.711 136.884L341.848 145.622C353.122 151.897 365.738 154.989 379.577 154.989V144.989ZM346.711 136.884C337.11 131.54 329.451 123.784 323.721 113.47L314.979 118.326C321.56 130.171 330.521 139.318 341.848 145.622L346.711 136.884ZM323.733 113.492C318.121 103.268 315.188 90.6004 315.188 75.2727H305.188C305.188 91.8579 308.363 106.273 314.967 118.304L323.733 113.492ZM315.188 75.2727C315.188 59.8948 318.122 47.2042 323.733 36.9827L314.967 32.1707C308.362 44.203 305.188 58.6431 305.188 75.2727H315.188ZM323.725 36.997C329.455 26.6389 337.109 18.891 346.696 13.5989L341.863 4.84428C330.521 11.1052 321.556 20.2608 314.975 32.1564L323.725 36.997ZM346.696 13.5989C356.352 8.26821 367.274 5.55681 379.577 5.55681V-4.44319C365.745 -4.44319 353.134 -1.37807 341.863 4.84428L346.696 13.5989ZM379.577 5.55681C391.831 5.55681 402.729 8.26672 412.388 13.5989L417.221 4.84428C405.952 -1.37658 393.366 -4.44319 379.577 -4.44319V5.55681ZM412.397 13.6035C422.03 18.8973 429.703 26.6446 435.43 36.997L444.18 32.1564C437.596 20.255 428.603 11.0989 417.213 4.83967L412.397 13.6035ZM435.43 36.997C441.082 47.2153 444.038 59.9006 444.038 75.2727H454.038C454.038 58.6373 450.838 44.1919 444.18 32.1564L435.43 36.997ZM418.1 75.2727C418.1 65.3579 416.691 56.6653 413.673 49.3582L404.431 53.1758C406.81 58.9369 408.1 66.2482 408.1 75.2727H418.1ZM413.685 49.387C410.722 42.0858 406.31 36.2752 400.329 32.2691L394.764 40.5775C398.82 43.2948 402.079 47.3801 404.419 53.1471L413.685 49.387ZM400.347 32.2813C394.417 28.2715 387.412 26.3807 379.577 26.3807V36.3807C385.758 36.3807 390.732 37.8516 394.745 40.5652L400.347 32.2813ZM379.577 26.3807C371.781 26.3807 364.788 28.2755 358.826 32.2691L364.391 40.5775C368.467 37.8476 373.453 36.3807 379.577 36.3807V26.3807ZM358.826 32.2691C352.853 36.2696 348.421 42.0695 345.411 49.3582L354.653 53.1758C357.04 47.3964 360.326 43.3004 364.391 40.5775L358.826 32.2691ZM345.399 49.387C342.437 56.6848 341.055 65.3667 341.055 75.2727H351.055C351.055 66.2394 352.323 58.9175 354.665 53.1471L345.399 49.387ZM341.055 75.2727C341.055 85.1788 342.437 93.8606 345.399 101.158L354.665 97.3983C352.323 91.628 351.055 84.3061 351.055 75.2727H341.055ZM345.411 101.187C348.421 108.476 352.853 114.276 358.826 118.276L364.391 109.968C360.326 107.245 357.04 103.149 354.653 97.3696L345.411 101.187ZM358.826 118.276C364.788 122.27 371.781 124.165 379.577 124.165V114.165C373.453 114.165 368.467 112.698 364.391 109.968L358.826 118.276ZM379.577 124.165C387.412 124.165 394.417 122.274 400.347 118.264L394.745 109.98C390.732 112.694 385.758 114.165 379.577 114.165V124.165ZM400.329 118.276C406.31 114.27 410.722 108.46 413.685 101.158L404.419 97.3983C402.079 103.165 398.82 107.251 394.764 109.968L400.329 118.276ZM413.673 101.187C416.691 93.8801 418.1 85.1876 418.1 75.2727H408.1C408.1 84.2973 406.81 91.6085 404.431 97.3696L413.673 101.187ZM469.563 148H464.563V153H469.563V148ZM469.563 2.54545V-2.45455H464.563V2.54545H469.563ZM557.844 8.44034L555.619 12.9178L555.635 12.9258L555.651 12.9337L557.844 8.44034ZM576.239 25.2017L571.935 27.7453L571.938 27.7515L571.942 27.7576L576.239 25.2017ZM576.097 76.6932L580.331 79.3535L580.335 79.347L580.339 79.3406L576.097 76.6932ZM557.347 92.7443L559.4 97.3034L559.411 97.2984L559.422 97.2934L557.347 92.7443ZM490.586 98.2131H485.586V103.213H490.586V98.2131ZM490.586 70.5142V65.5142H485.586V70.5142H490.586ZM535.33 68.4545L537.133 73.1181L537.15 73.1117L537.166 73.1053L535.33 68.4545ZM543.498 62.0625L547.69 64.7874L547.7 64.7717L547.71 64.7558L543.498 62.0625ZM543.498 39.8324L539.247 42.4642L539.256 42.4794L539.266 42.4946L543.498 39.8324ZM535.33 33.1562L533.39 37.7644L533.416 37.7753L533.442 37.7859L535.33 33.1562ZM504.719 30.8835V25.8835H499.719V30.8835H504.719ZM504.719 148V153H509.719V148H504.719ZM551.452 81.5227L555.843 79.1304L554.422 76.5227H551.452V81.5227ZM587.674 148V153H596.092L592.065 145.608L587.674 148ZM549.322 148L544.912 150.356L546.324 153H549.322V148ZM513.81 81.5227V76.5227H505.471L509.4 83.8786L513.81 81.5227ZM474.563 148V2.54545H464.563V148H474.563ZM469.563 7.54545H529.648V-2.45455H469.563V7.54545ZM529.648 7.54545C539.943 7.54545 548.546 9.40241 555.619 12.9178L560.07 3.96285C551.329 -0.38158 541.134 -2.45455 529.648 -2.45455V7.54545ZM555.651 12.9337C562.768 16.4074 568.147 21.3354 571.935 27.7453L580.544 22.6581C575.714 14.4847 568.83 8.23842 560.038 3.94701L555.651 12.9337ZM571.942 27.7576C575.714 34.0996 577.702 41.7764 577.702 50.983H587.702C587.702 40.3032 585.382 30.7924 580.537 22.6458L571.942 27.7576ZM577.702 50.983C577.702 60.3322 575.667 67.9391 571.856 74.0457L580.339 79.3406C585.334 71.3374 587.702 61.8042 587.702 50.983H577.702ZM571.864 74.0329C568.019 80.1508 562.55 84.8754 555.272 88.1952L559.422 97.2934C568.337 93.2269 575.368 87.2507 580.331 79.3535L571.864 74.0329ZM555.294 88.1852C547.982 91.4778 539.125 93.2131 528.583 93.2131V103.213C540.2 103.213 550.519 101.302 559.4 97.3034L555.294 88.1852ZM528.583 93.2131H490.586V103.213H528.583V93.2131ZM495.586 98.2131V70.5142H485.586V98.2131H495.586ZM490.586 75.5142H522.049V65.5142H490.586V75.5142ZM522.049 75.5142C527.744 75.5142 532.829 74.7823 537.133 73.1181L533.527 63.791C530.729 64.873 526.96 65.5142 522.049 65.5142V75.5142ZM537.166 73.1053C541.589 71.3595 545.199 68.6195 547.69 64.7874L539.306 59.3376C538.103 61.1873 536.269 62.7087 533.494 63.8038L537.166 73.1053ZM547.71 64.7558C550.209 60.8481 551.268 56.1432 551.268 50.983H541.268C541.268 54.8189 540.48 57.5003 539.285 59.3692L547.71 64.7558ZM551.268 50.983C551.268 45.818 550.207 41.1078 547.73 37.1701L539.266 42.4946C540.482 44.4282 541.268 47.1516 541.268 50.983H551.268ZM547.749 37.2006C545.286 33.222 541.685 30.3486 537.219 28.5266L533.442 37.7859C536.172 38.8995 538.016 40.4769 539.247 42.4642L547.749 37.2006ZM537.271 28.5481C532.885 26.7015 527.754 25.8835 522.049 25.8835V35.8835C526.856 35.8835 530.579 36.5807 533.39 37.7644L537.271 28.5481ZM522.049 25.8835H504.719V35.8835H522.049V25.8835ZM499.719 30.8835V148H509.719V30.8835H499.719ZM504.719 143H469.563V153H504.719V143ZM547.062 83.915L583.283 150.392L592.065 145.608L555.843 79.1304L547.062 83.915ZM587.674 143H549.322V153H587.674V143ZM553.732 145.644L518.221 79.1668L509.4 83.8786L544.912 150.356L553.732 145.644ZM513.81 86.5227H551.452V76.5227H513.81V86.5227ZM597.227 31.0966H592.227V36.0966H597.227V31.0966ZM597.227 2.54545V-2.45455H592.227V2.54545H597.227ZM720.167 2.54545H725.167V-2.45455H720.167V2.54545ZM720.167 31.0966V36.0966H725.167V31.0966H720.167ZM676.062 31.0966V26.0966H671.062V31.0966H676.062ZM676.062 148V153H681.062V148H676.062ZM641.403 148H636.403V153H641.403V148ZM641.403 31.0966H646.403V26.0966H641.403V31.0966ZM602.227 31.0966V2.54545H592.227V31.0966H602.227ZM597.227 7.54545H720.167V-2.45455H597.227V7.54545ZM715.167 2.54545V31.0966H725.167V2.54545H715.167ZM720.167 26.0966H676.062V36.0966H720.167V26.0966ZM671.062 31.0966V148H681.062V31.0966H671.062ZM676.062 143H641.403V153H676.062V143ZM646.403 148V31.0966H636.403V148H646.403ZM641.403 26.0966H597.227V36.0966H641.403V26.0966ZM1.00852 357H-3.99148V362H1.00852V357ZM1.00852 211.545V206.545H-3.99148V211.545H1.00852ZM100.298 211.545H105.298V206.545H100.298V211.545ZM100.298 240.097V245.097H105.298V240.097H100.298ZM36.1648 240.097V235.097H31.1648V240.097H36.1648ZM36.1648 269.926H31.1648V274.926H36.1648V269.926ZM93.9773 269.926H98.9773V264.926H93.9773V269.926ZM93.9773 298.548V303.548H98.9773V298.548H93.9773ZM36.1648 298.548V293.548H31.1648V298.548H36.1648ZM36.1648 357V362H41.1648V357H36.1648ZM6.00852 357V211.545H-3.99148V357H6.00852ZM1.00852 216.545H100.298V206.545H1.00852V216.545ZM95.2983 211.545V240.097H105.298V211.545H95.2983ZM100.298 235.097H36.1648V245.097H100.298V235.097ZM31.1648 240.097V269.926H41.1648V240.097H31.1648ZM36.1648 274.926H93.9773V264.926H36.1648V274.926ZM88.9773 269.926V298.548H98.9773V269.926H88.9773ZM93.9773 293.548H36.1648V303.548H93.9773V293.548ZM31.1648 298.548V357H41.1648V298.548H31.1648ZM36.1648 352H1.00852V362H36.1648V352ZM246.055 324.969L241.68 322.548L241.68 322.548L246.055 324.969ZM221.055 350.324L218.647 345.942L218.638 345.947L221.055 350.324ZM150.529 350.253L152.961 345.884L152.961 345.884L150.529 350.253ZM125.6 324.898L121.217 327.304L121.223 327.315L121.229 327.326L125.6 324.898ZM125.6 243.577L121.225 241.156L121.221 241.164L121.217 241.171L125.6 243.577ZM150.529 218.222L152.946 222.599L152.946 222.599L150.529 218.222ZM221.055 218.222L218.638 222.599L218.647 222.604L221.055 218.222ZM246.055 243.577L241.68 245.997L241.68 245.997L246.055 243.577ZM215.302 260.267L210.669 262.147L210.675 262.162L210.681 262.176L215.302 260.267ZM203.796 245.423L200.995 249.565L201.005 249.571L201.014 249.577L203.796 245.423ZM167.859 245.423L170.641 249.578L170.641 249.577L167.859 245.423ZM156.282 260.267L151.661 258.358L151.655 258.373L151.649 258.387L156.282 260.267ZM156.282 308.278L151.649 310.158L151.655 310.173L151.661 310.187L156.282 308.278ZM167.859 323.122L170.641 318.968L170.641 318.968L167.859 323.122ZM203.796 323.122L201.014 318.968L201.005 318.974L200.995 318.98L203.796 323.122ZM215.302 308.278L210.681 306.37L210.675 306.384L210.669 306.398L215.302 308.278ZM250.288 284.273C250.288 299.645 247.332 312.33 241.68 322.548L250.43 327.389C257.088 315.354 260.288 300.908 260.288 284.273H250.288ZM241.68 322.548C235.953 332.901 228.28 340.648 218.647 345.942L223.463 354.706C234.853 348.447 243.846 339.29 250.43 327.389L241.68 322.548ZM218.638 345.947C208.979 351.279 198.081 353.989 185.827 353.989V363.989C199.616 363.989 212.202 360.922 223.471 354.701L218.638 345.947ZM185.827 353.989C173.531 353.989 162.614 351.257 152.961 345.884L148.098 354.622C159.372 360.897 171.988 363.989 185.827 363.989V353.989ZM152.961 345.884C143.36 340.54 135.701 332.784 129.971 322.47L121.229 327.326C127.81 339.171 136.771 348.318 148.098 354.622L152.961 345.884ZM129.983 322.492C124.371 312.268 121.438 299.6 121.438 284.273H111.438C111.438 300.858 114.613 315.273 121.217 327.304L129.983 322.492ZM121.438 284.273C121.438 268.895 124.372 256.204 129.983 245.983L121.217 241.171C114.612 253.203 111.438 267.643 111.438 284.273H121.438ZM129.975 245.997C135.705 235.639 143.359 227.891 152.946 222.599L148.113 213.844C136.771 220.105 127.806 229.261 121.225 241.156L129.975 245.997ZM152.946 222.599C162.602 217.268 173.524 214.557 185.827 214.557V204.557C171.995 204.557 159.384 207.622 148.113 213.844L152.946 222.599ZM185.827 214.557C198.081 214.557 208.979 217.267 218.638 222.599L223.471 213.844C212.202 207.623 199.616 204.557 185.827 204.557V214.557ZM218.647 222.604C228.28 227.897 235.953 235.645 241.68 245.997L250.43 241.156C243.846 229.255 234.853 220.099 223.463 213.84L218.647 222.604ZM241.68 245.997C247.332 256.215 250.288 268.901 250.288 284.273H260.288C260.288 267.637 257.088 253.192 250.43 241.156L241.68 245.997ZM224.35 284.273C224.35 274.358 222.941 265.665 219.923 258.358L210.681 262.176C213.06 267.937 214.35 275.248 214.35 284.273H224.35ZM219.935 258.387C216.972 251.086 212.56 245.275 206.579 241.269L201.014 249.577C205.07 252.295 208.329 256.38 210.669 262.147L219.935 258.387ZM206.597 241.281C200.667 237.271 193.662 235.381 185.827 235.381V245.381C192.008 245.381 196.982 246.852 200.995 249.565L206.597 241.281ZM185.827 235.381C178.031 235.381 171.038 237.276 165.076 241.269L170.641 249.577C174.717 246.848 179.703 245.381 185.827 245.381V235.381ZM165.076 241.269C159.103 245.27 154.671 251.07 151.661 258.358L160.903 262.176C163.29 256.396 166.576 252.3 170.641 249.578L165.076 241.269ZM151.649 258.387C148.687 265.685 147.305 274.367 147.305 284.273H157.305C157.305 275.239 158.573 267.917 160.915 262.147L151.649 258.387ZM147.305 284.273C147.305 294.179 148.687 302.861 151.649 310.158L160.915 306.398C158.573 300.628 157.305 293.306 157.305 284.273H147.305ZM151.661 310.187C154.671 317.476 159.103 323.276 165.076 327.276L170.641 318.968C166.576 316.245 163.29 312.149 160.903 306.37L151.661 310.187ZM165.076 327.276C171.038 331.27 178.031 333.165 185.827 333.165V323.165C179.703 323.165 174.717 321.698 170.641 318.968L165.076 327.276ZM185.827 333.165C193.662 333.165 200.667 331.274 206.597 327.264L200.995 318.98C196.982 321.694 192.008 323.165 185.827 323.165V333.165ZM206.579 327.276C212.56 323.27 216.972 317.46 219.935 310.158L210.669 306.398C208.329 312.165 205.07 316.251 201.014 318.968L206.579 327.276ZM219.923 310.187C222.941 302.88 224.35 294.188 224.35 284.273H214.35C214.35 293.297 213.06 300.609 210.681 306.37L219.923 310.187ZM275.813 357H270.813V362H275.813V357ZM275.813 211.545V206.545H270.813V211.545H275.813ZM310.969 211.545H315.969V206.545H310.969V211.545ZM310.969 328.449H305.969V333.449H310.969V328.449ZM371.481 328.449H376.481V323.449H371.481V328.449ZM371.481 357V362H376.481V357H371.481ZM280.813 357V211.545H270.813V357H280.813ZM275.813 216.545H310.969V206.545H275.813V216.545ZM305.969 211.545V328.449H315.969V211.545H305.969ZM310.969 333.449H371.481V323.449H310.969V333.449ZM366.481 328.449V357H376.481V328.449H366.481ZM371.481 352H275.813V362H371.481V352ZM424.837 211.545H429.837V206.545H424.837V211.545ZM424.837 357V362H429.837V357H424.837ZM389.68 357H384.68V362H389.68V357ZM389.68 211.545V206.545H384.68V211.545H389.68ZM419.837 211.545V357H429.837V211.545H419.837ZM424.837 352H389.68V362H424.837V352ZM394.68 357V211.545H384.68V357H394.68ZM389.68 216.545H424.837V206.545H389.68V216.545ZM574.961 324.969L570.586 322.548L570.586 322.548L574.961 324.969ZM549.961 350.324L547.553 345.942L547.545 345.947L549.961 350.324ZM479.435 350.253L481.867 345.884L481.867 345.884L479.435 350.253ZM454.506 324.898L450.123 327.304L450.129 327.315L450.136 327.326L454.506 324.898ZM454.506 243.577L450.131 241.156L450.127 241.164L450.123 241.171L454.506 243.577ZM479.435 218.222L481.852 222.599L481.852 222.599L479.435 218.222ZM549.961 218.222L547.544 222.599L547.553 222.604L549.961 218.222ZM574.961 243.577L570.586 245.997L570.586 245.997L574.961 243.577ZM544.208 260.267L539.575 262.147L539.581 262.162L539.587 262.176L544.208 260.267ZM532.702 245.423L529.902 249.565L529.911 249.571L529.92 249.577L532.702 245.423ZM496.765 245.423L499.547 249.578L499.547 249.577L496.765 245.423ZM485.188 260.267L480.567 258.358L480.561 258.373L480.555 258.387L485.188 260.267ZM485.188 308.278L480.555 310.158L480.561 310.173L480.567 310.187L485.188 308.278ZM496.765 323.122L499.547 318.968L499.547 318.968L496.765 323.122ZM532.702 323.122L529.92 318.968L529.911 318.974L529.902 318.98L532.702 323.122ZM544.208 308.278L539.587 306.37L539.581 306.384L539.575 306.398L544.208 308.278ZM579.194 284.273C579.194 299.645 576.238 312.33 570.586 322.548L579.336 327.389C585.994 315.354 589.194 300.908 589.194 284.273H579.194ZM570.586 322.548C564.859 332.901 557.186 340.648 547.553 345.942L552.369 354.706C563.759 348.447 572.752 339.29 579.336 327.389L570.586 322.548ZM547.545 345.947C537.885 351.279 526.987 353.989 514.734 353.989V363.989C528.522 363.989 541.108 360.922 552.377 354.701L547.545 345.947ZM514.734 353.989C502.437 353.989 491.521 351.257 481.867 345.884L477.004 354.622C488.278 360.897 500.894 363.989 514.734 363.989V353.989ZM481.867 345.884C472.266 340.54 464.607 332.784 458.877 322.47L450.136 327.326C456.716 339.171 465.677 348.318 477.004 354.622L481.867 345.884ZM458.889 322.492C453.277 312.268 450.344 299.6 450.344 284.273H440.344C440.344 300.858 443.519 315.273 450.123 327.304L458.889 322.492ZM450.344 284.273C450.344 268.895 453.279 256.204 458.889 245.983L450.123 241.171C443.518 253.203 440.344 267.643 440.344 284.273H450.344ZM458.882 245.997C464.612 235.639 472.265 227.891 481.852 222.599L477.019 213.844C465.677 220.105 456.712 229.261 450.131 241.156L458.882 245.997ZM481.852 222.599C491.508 217.268 502.43 214.557 514.734 214.557V204.557C500.901 204.557 488.291 207.622 477.019 213.844L481.852 222.599ZM514.734 214.557C526.987 214.557 537.885 217.267 547.545 222.599L552.377 213.844C541.108 207.623 528.522 204.557 514.734 204.557V214.557ZM547.553 222.604C557.186 227.897 564.859 235.645 570.586 245.997L579.336 241.156C572.752 229.255 563.759 220.099 552.369 213.84L547.553 222.604ZM570.586 245.997C576.238 256.215 579.194 268.901 579.194 284.273H589.194C589.194 267.637 585.994 253.192 579.336 241.156L570.586 245.997ZM553.256 284.273C553.256 274.358 551.848 265.665 548.829 258.358L539.587 262.176C541.966 267.937 543.256 275.248 543.256 284.273H553.256ZM548.841 258.387C545.878 251.086 541.466 245.275 535.485 241.269L529.92 249.577C533.977 252.295 537.235 256.38 539.575 262.147L548.841 258.387ZM535.503 241.281C529.573 237.271 522.568 235.381 514.734 235.381V245.381C520.914 245.381 525.889 246.852 529.902 249.565L535.503 241.281ZM514.734 235.381C506.938 235.381 499.945 237.276 493.982 241.269L499.547 249.577C503.623 246.848 508.609 245.381 514.734 245.381V235.381ZM493.982 241.269C488.01 245.27 483.577 251.07 480.567 258.358L489.81 262.176C492.197 256.396 495.482 252.3 499.547 249.578L493.982 241.269ZM480.555 258.387C477.594 265.685 476.211 274.367 476.211 284.273H486.211C486.211 275.239 487.48 267.917 489.821 262.147L480.555 258.387ZM476.211 284.273C476.211 294.179 477.594 302.861 480.555 310.158L489.821 306.398C487.48 300.628 486.211 293.306 486.211 284.273H476.211ZM480.567 310.187C483.577 317.476 488.01 323.276 493.982 327.276L499.547 318.968C495.482 316.245 492.197 312.149 489.81 306.37L480.567 310.187ZM493.982 327.276C499.945 331.27 506.938 333.165 514.734 333.165V323.165C508.609 323.165 503.623 321.698 499.547 318.968L493.982 327.276ZM514.734 333.165C522.568 333.165 529.573 331.274 535.503 327.264L529.902 318.98C525.889 321.694 520.914 323.165 514.734 323.165V333.165ZM535.485 327.276C541.466 323.27 545.878 317.46 548.841 310.158L539.575 306.398C537.235 312.165 533.977 316.251 529.92 318.968L535.485 327.276ZM548.829 310.187C551.848 302.88 553.256 294.188 553.256 284.273H543.256C543.256 293.297 541.966 300.609 539.587 306.37L548.829 310.187ZM715.018 204.727L719.846 206.027L721.542 199.727H715.018V204.727ZM668.143 378.875V383.875H671.975L672.971 380.175L668.143 378.875ZM638.526 378.875L633.698 377.575L632.002 383.875H638.526V378.875ZM685.401 204.727V199.727H681.569L680.573 203.428L685.401 204.727ZM710.19 203.428L663.315 377.575L672.971 380.175L719.846 206.027L710.19 203.428ZM668.143 373.875H638.526V383.875H668.143V373.875ZM643.354 380.175L690.229 206.027L680.573 203.428L633.698 377.575L643.354 380.175ZM685.401 209.727H715.018V199.727H685.401V209.727ZM836.982 313.108L838.917 317.718L841.982 316.431V313.108H836.982ZM734.141 356.29H729.141V363.812L736.076 360.9L734.141 356.29ZM734.141 324.045L732.387 319.363L729.141 320.579V324.045H734.141ZM802.038 298.619L806.309 301.219L813.829 288.865L800.285 293.937L802.038 298.619ZM801.044 300.253H796.044V318.083L805.315 302.853L801.044 300.253ZM801.044 296.489L805.262 293.804L796.044 279.318V296.489H801.044ZM802.038 298.051L800.289 302.735L814.267 307.955L806.257 295.367L802.038 298.051ZM734.141 272.696H729.141V276.166L732.391 277.38L734.141 272.696ZM734.141 240.381L736.076 235.771L729.141 232.858V240.381H734.141ZM836.982 283.562H841.982V280.239L838.917 278.952L836.982 283.562ZM835.046 308.498L732.205 351.68L736.076 360.9L838.917 317.718L835.046 308.498ZM739.141 356.29V324.045H729.141V356.29H739.141ZM735.894 328.728L803.792 303.302L800.285 293.937L732.387 319.363L735.894 328.728ZM797.767 296.02L796.773 297.653L805.315 302.853L806.309 301.219L797.767 296.02ZM806.044 300.253V296.489H796.044V300.253H806.044ZM796.826 299.173L797.82 300.736L806.257 295.367L805.262 293.804L796.826 299.173ZM803.788 293.367L735.89 268.012L732.391 277.38L800.289 302.735L803.788 293.367ZM739.141 272.696V240.381H729.141V272.696H739.141ZM732.205 244.991L835.046 288.173L838.917 278.952L736.076 235.771L732.205 244.991ZM831.982 283.562V313.108H841.982V283.562H831.982Z" fill="#2C5758" mask="url(#path-1-outside-1_303_100)"/>
</g>
<defs>
<filter id="filter0_d_303_100" x="0.708545" y="0.256885" width="846.573" height="388.918" filterUnits="userSpaceOnUse" color-interpolation-filters="sRGB">
<feFlood flood-opacity="0" result="BackgroundImageFix"/>
<feColorMatrix in="SourceAlpha" type="matrix" values="0 0 0 0 0 0 0 0 0 0 0 0 0 0 0 0 0 0 127 0" result="hardAlpha"/>
<feOffset dx="5" dy="5"/>
<feGaussianBlur stdDeviation="2.65"/>
<feComposite in2="hardAlpha" operator="out"/>
<feColorMatrix type="matrix" values="0 0 0 0 0 0 0 0 0 0 0 0 0 0 0 0 0 0 0.25 0"/>
<feBlend mode="normal" in2="BackgroundImageFix" result="effect1_dropShadow_303_100"/>
<feBlend mode="normal" in="SourceGraphic" in2="effect1_dropShadow_303_100" result="shape"/>
</filter>
</defs>
</svg>
