<svg width="848" height="381" viewBox="0 0 848 381" fill="none" xmlns="http://www.w3.org/2000/svg">
<g filter="url(#filter0_d_303_100)">
<mask id="path-1-outside-1_303_100" maskUnits="userSpaceOnUse" x="-1" y="-2" width="840" height="374" fill="black">
<rect fill="white" x="-1" y="-2" width="840" height="374"/>
<path d="M7.1875 90.4716V60.9261L110.028 17.7443V50.0597L42.1307 75.4148L43.196 73.8523V77.6165L42.1307 75.983L110.028 101.409V133.653L7.1875 90.4716ZM181.282 148V2.54545H241.367C252.257 2.54545 261.656 4.67613 269.563 8.9375C277.518 13.1515 283.649 19.0464 287.958 26.6222C292.267 34.1506 294.421 42.91 294.421 52.9006C294.421 62.9384 292.219 71.7216 287.816 79.25C283.46 86.7311 277.234 92.5312 269.137 96.6506C261.04 100.77 251.429 102.83 240.302 102.83H203.228V75.1307H233.768C239.071 75.1307 243.498 74.2074 247.049 72.3608C250.647 70.5142 253.37 67.9337 255.217 64.6193C257.063 61.2576 257.987 57.3513 257.987 52.9006C257.987 48.4025 257.063 44.5199 255.217 41.2528C253.37 37.9384 250.647 35.3816 247.049 33.5824C243.451 31.7831 239.023 30.8835 233.768 30.8835H216.438V148H181.282ZM449.038 75.2727C449.038 91.2765 445.96 104.842 439.805 115.969C433.649 127.096 425.316 135.547 414.805 141.324C404.341 147.1 392.598 149.989 379.577 149.989C366.509 149.989 354.743 147.077 344.279 141.253C333.815 135.429 325.505 126.977 319.35 115.898C313.242 104.771 310.188 91.2292 310.188 75.2727C310.188 59.2689 313.242 45.7036 319.35 34.5767C325.505 23.4498 333.815 14.9981 344.279 9.22159C354.743 3.44507 366.509 0.556813 379.577 0.556813C392.598 0.556813 404.341 3.44507 414.805 9.22159C425.316 14.9981 433.649 23.4498 439.805 34.5767C445.96 45.7036 449.038 59.2689 449.038 75.2727ZM413.1 75.2727C413.1 65.803 411.751 57.8011 409.052 51.267C406.4 44.7329 402.565 39.785 397.546 36.4233C392.575 33.0615 386.585 31.3807 379.577 31.3807C372.617 31.3807 366.628 33.0615 361.609 36.4233C356.59 39.785 352.731 44.7329 350.032 51.267C347.38 57.8011 346.055 65.803 346.055 75.2727C346.055 84.7424 347.38 92.7443 350.032 99.2784C352.731 105.812 356.59 110.76 361.609 114.122C366.628 117.484 372.617 119.165 379.577 119.165C386.585 119.165 392.575 117.484 397.546 114.122C402.565 110.76 406.4 105.812 409.052 99.2784C411.751 92.7443 413.1 84.7424 413.1 75.2727ZM469.563 148V2.54545H529.648C540.539 2.54545 549.937 4.51041 557.844 8.44034C565.799 12.3229 571.931 17.91 576.239 25.2017C580.548 32.446 582.702 41.0398 582.702 50.983C582.702 61.0682 580.501 69.6383 576.097 76.6932C571.694 83.7008 565.444 89.0511 557.347 92.7443C549.251 96.3902 539.663 98.2131 528.583 98.2131H490.586V70.5142H522.049C527.352 70.5142 531.779 69.8276 535.33 68.4545C538.929 67.0341 541.651 64.9034 543.498 62.0625C545.344 59.1742 546.268 55.4811 546.268 50.983C546.268 46.4848 545.344 42.768 543.498 39.8324C541.651 36.8494 538.929 34.6241 535.33 33.1562C531.732 31.6411 527.305 30.8835 522.049 30.8835H504.719V148H469.563ZM551.452 81.5227L587.674 148H549.322L513.81 81.5227H551.452ZM597.227 31.0966V2.54545H720.167V31.0966H676.062V148H641.403V31.0966H597.227ZM1.00852 348V202.545H100.298V231.097H36.1648V260.926H93.9773V289.548H36.1648V348H1.00852ZM255.288 275.273C255.288 291.277 252.21 304.842 246.055 315.969C239.899 327.096 231.566 335.547 221.055 341.324C210.591 347.1 198.848 349.989 185.827 349.989C172.759 349.989 160.993 347.077 150.529 341.253C140.065 335.429 131.755 326.977 125.6 315.898C119.492 304.771 116.438 291.229 116.438 275.273C116.438 259.269 119.492 245.704 125.6 234.577C131.755 223.45 140.065 214.998 150.529 209.222C160.993 203.445 172.759 200.557 185.827 200.557C198.848 200.557 210.591 203.445 221.055 209.222C231.566 214.998 239.899 223.45 246.055 234.577C252.21 245.704 255.288 259.269 255.288 275.273ZM219.35 275.273C219.35 265.803 218.001 257.801 215.302 251.267C212.65 244.733 208.815 239.785 203.796 236.423C198.825 233.062 192.835 231.381 185.827 231.381C178.867 231.381 172.878 233.062 167.859 236.423C162.84 239.785 158.981 244.733 156.282 251.267C153.63 257.801 152.305 265.803 152.305 275.273C152.305 284.742 153.63 292.744 156.282 299.278C158.981 305.812 162.84 310.76 167.859 314.122C172.878 317.484 178.867 319.165 185.827 319.165C192.835 319.165 198.825 317.484 203.796 314.122C208.815 310.76 212.65 305.812 215.302 299.278C218.001 292.744 219.35 284.742 219.35 275.273ZM275.813 348V202.545H310.969V319.449H371.481V348H275.813ZM424.837 202.545V348H389.68V202.545H424.837ZM584.194 275.273C584.194 291.277 581.116 304.842 574.961 315.969C568.806 327.096 560.472 335.547 549.961 341.324C539.497 347.1 527.755 349.989 514.734 349.989C501.665 349.989 489.899 347.077 479.435 341.253C468.971 335.429 460.662 326.977 454.506 315.898C448.398 304.771 445.344 291.229 445.344 275.273C445.344 259.269 448.398 245.704 454.506 234.577C460.662 223.45 468.971 214.998 479.435 209.222C489.899 203.445 501.665 200.557 514.734 200.557C527.755 200.557 539.497 203.445 549.961 209.222C560.472 214.998 568.806 223.45 574.961 234.577C581.116 245.704 584.194 259.269 584.194 275.273ZM548.256 275.273C548.256 265.803 546.907 257.801 544.208 251.267C541.557 244.733 537.721 239.785 532.702 236.423C527.731 233.062 521.741 231.381 514.734 231.381C507.773 231.381 501.784 233.062 496.765 236.423C491.746 239.785 487.887 244.733 485.188 251.267C482.537 257.801 481.211 265.803 481.211 275.273C481.211 284.742 482.537 292.744 485.188 299.278C487.887 305.812 491.746 310.76 496.765 314.122C501.784 317.484 507.773 319.165 514.734 319.165C521.741 319.165 527.731 317.484 532.702 314.122C537.721 310.76 541.557 305.812 544.208 299.278C546.907 292.744 548.256 284.742 548.256 275.273ZM715.018 195.727L668.143 369.875H638.526L685.401 195.727H715.018ZM836.982 304.108L734.141 347.29V315.045L802.038 289.619L801.044 291.253V287.489L802.038 289.051L734.141 263.696V231.381L836.982 274.562V304.108Z"/>
</mask>
<path d="M7.1875 90.4716V60.9261L110.028 17.7443V50.0597L42.1307 75.4148L43.196 73.8523V77.6165L42.1307 75.983L110.028 101.409V133.653L7.1875 90.4716ZM181.282 148V2.54545H241.367C252.257 2.54545 261.656 4.67613 269.563 8.9375C277.518 13.1515 283.649 19.0464 287.958 26.6222C292.267 34.1506 294.421 42.91 294.421 52.9006C294.421 62.9384 292.219 71.7216 287.816 79.25C283.46 86.7311 277.234 92.5312 269.137 96.6506C261.04 100.77 251.429 102.83 240.302 102.83H203.228V75.1307H233.768C239.071 75.1307 243.498 74.2074 247.049 72.3608C250.647 70.5142 253.37 67.9337 255.217 64.6193C257.063 61.2576 257.987 57.3513 257.987 52.9006C257.987 48.4025 257.063 44.5199 255.217 41.2528C253.37 37.9384 250.647 35.3816 247.049 33.5824C243.451 31.7831 239.023 30.8835 233.768 30.8835H216.438V148H181.282ZM449.038 75.2727C449.038 91.2765 445.96 104.842 439.805 115.969C433.649 127.096 425.316 135.547 414.805 141.324C404.341 147.1 392.598 149.989 379.577 149.989C366.509 149.989 354.743 147.077 344.279 141.253C333.815 135.429 325.505 126.977 319.35 115.898C313.242 104.771 310.188 91.2292 310.188 75.2727C310.188 59.2689 313.242 45.7036 319.35 34.5767C325.505 23.4498 333.815 14.9981 344.279 9.22159C354.743 3.44507 366.509 0.556813 379.577 0.556813C392.598 0.556813 404.341 3.44507 414.805 9.22159C425.316 14.9981 433.649 23.4498 439.805 34.5767C445.96 45.7036 449.038 59.2689 449.038 75.2727ZM413.1 75.2727C413.1 65.803 411.751 57.8011 409.052 51.267C406.4 44.7329 402.565 39.785 397.546 36.4233C392.575 33.0615 386.585 31.3807 379.577 31.3807C372.617 31.3807 366.628 33.0615 361.609 36.4233C356.59 39.785 352.731 44.7329 350.032 51.267C347.38 57.8011 346.055 65.803 346.055 75.2727C346.055 84.7424 347.38 92.7443 350.032 99.2784C352.731 105.812 356.59 110.76 361.609 114.122C366.628 117.484 372.617 119.165 379.577 119.165C386.585 119.165 392.575 117.484 397.546 114.122C402.565 110.76 406.4 105.812 409.052 99.2784C411.751 92.7443 413.1 84.7424 413.1 75.2727ZM469.563 148V2.54545H529.648C540.539 2.54545 549.937 4.51041 557.844 8.44034C565.799 12.3229 571.931 17.91 576.239 25.2017C580.548 32.446 582.702 41.0398 582.702 50.983C582.702 61.0682 580.501 69.6383 576.097 76.6932C571.694 83.7008 565.444 89.0511 557.347 92.7443C549.251 96.3902 539.663 98.2131 528.583 98.2131H490.586V70.5142H522.049C527.352 70.5142 531.779 69.8276 535.33 68.4545C538.929 67.0341 541.651 64.9034 543.498 62.0625C545.344 59.1742 546.268 55.4811 546.268 50.983C546.268 46.4848 545.344 42.768 543.498 39.8324C541.651 36.8494 538.929 34.6241 535.33 33.1562C531.732 31.6411 527.305 30.8835 522.049 30.8835H504.719V148H469.563ZM551.452 81.5227L587.674 148H549.322L513.81 81.5227H551.452ZM597.227 31.0966V2.54545H720.167V31.0966H676.062V148H641.403V31.0966H597.227ZM1.00852 348V202.545H100.298V231.097H36.1648V260.926H93.9773V289.548H36.1648V348H1.00852ZM255.288 275.273C255.288 291.277 252.21 304.842 246.055 315.969C239.899 327.096 231.566 335.547 221.055 341.324C210.591 347.1 198.848 349.989 185.827 349.989C172.759 349.989 160.993 347.077 150.529 341.253C140.065 335.429 131.755 326.977 125.6 315.898C119.492 304.771 116.438 291.229 116.438 275.273C116.438 259.269 119.492 245.704 125.6 234.577C131.755 223.45 140.065 214.998 150.529 209.222C160.993 203.445 172.759 200.557 185.827 200.557C198.848 200.557 210.591 203.445 221.055 209.222C231.566 214.998 239.899 223.45 246.055 234.577C252.21 245.704 255.288 259.269 255.288 275.273ZM219.35 275.273C219.35 265.803 218.001 257.801 215.302 251.267C212.65 244.733 208.815 239.785 203.796 236.423C198.825 233.062 192.835 231.381 185.827 231.381C178.867 231.381 172.878 233.062 167.859 236.423C162.84 239.785 158.981 244.733 156.282 251.267C153.63 257.801 152.305 265.803 152.305 275.273C152.305 284.742 153.63 292.744 156.282 299.278C158.981 305.812 162.84 310.76 167.859 314.122C172.878 317.484 178.867 319.165 185.827 319.165C192.835 319.165 198.825 317.484 203.796 314.122C208.815 310.76 212.65 305.812 215.302 299.278C218.001 292.744 219.35 284.742 219.35 275.273ZM275.813 348V202.545H310.969V319.449H371.481V348H275.813ZM424.837 202.545V348H389.68V202.545H424.837ZM584.194 275.273C584.194 291.277 581.116 304.842 574.961 315.969C568.806 327.096 560.472 335.547 549.961 341.324C539.497 347.1 527.755 349.989 514.734 349.989C501.665 349.989 489.899 347.077 479.435 341.253C468.971 335.429 460.662 326.977 454.506 315.898C448.398 304.771 445.344 291.229 445.344 275.273C445.344 259.269 448.398 245.704 454.506 234.577C460.662 223.45 468.971 214.998 479.435 209.222C489.899 203.445 501.665 200.557 514.734 200.557C527.755 200.557 539.497 203.445 549.961 209.222C560.472 214.998 568.806 223.45 574.961 234.577C581.116 245.704 584.194 259.269 584.194 275.273ZM548.256 275.273C548.256 265.803 546.907 257.801 544.208 251.267C541.557 244.733 537.721 239.785 532.702 236.423C527.731 233.062 521.741 231.381 514.734 231.381C507.773 231.381 501.784 233.062 496.765 236.423C491.746 239.785 487.887 244.733 485.188 251.267C482.537 257.801 481.211 265.803 481.211 275.273C481.211 284.742 482.537 292.744 485.188 299.278C487.887 305.812 491.746 310.76 496.765 314.122C501.784 317.484 507.773 319.165 514.734 319.165C521.741 319.165 527.731 317.484 532.702 314.122C537.721 310.76 541.557 305.812 544.208 299.278C546.907 292.744 548.256 284.742 548.256 275.273ZM715.018 195.727L668.143 369.875H638.526L685.401 195.727H715.018ZM836.982 304.108L734.141 347.29V315.045L802.038 289.619L801.044 291.253V287.489L802.038 289.051L734.141 263.696V231.381L836.982 274.562V304.108Z" fill="#030303"/>
<path d="M7.1875 90.4716H5.1875V91.801L6.41321 92.3156L7.1875 90.4716ZM7.1875 60.9261L6.41321 59.0821L5.1875 59.5968V60.9261H7.1875ZM110.028 17.7443H112.028V14.7354L109.254 15.9003L110.028 17.7443ZM110.028 50.0597L110.728 51.9333L112.028 51.4477V50.0597H110.028ZM42.1307 75.4148L40.4782 74.2881L36.9303 79.4916L42.8304 77.2884L42.1307 75.4148ZM43.196 73.8523H45.196V67.3687L41.5436 72.7256L43.196 73.8523ZM43.196 77.6165L41.5208 78.709L45.196 84.3443V77.6165H43.196ZM42.1307 75.983L42.8321 74.11L37.1285 71.9741L40.4555 77.0755L42.1307 75.983ZM110.028 101.409H112.028V100.022L110.73 99.5361L110.028 101.409ZM110.028 133.653L109.254 135.497L112.028 136.662V133.653H110.028ZM9.1875 90.4716V60.9261H5.1875V90.4716H9.1875ZM7.96179 62.7702L110.803 19.5883L109.254 15.9003L6.41321 59.0821L7.96179 62.7702ZM108.028 17.7443V50.0597H112.028V17.7443H108.028ZM109.329 48.186L41.431 73.5411L42.8304 77.2884L110.728 51.9333L109.329 48.186ZM43.7831 76.5414L44.8485 74.9789L41.5436 72.7256L40.4782 74.2881L43.7831 76.5414ZM41.196 73.8523V77.6165H45.196V73.8523H41.196ZM44.8712 76.5239L43.8059 74.8904L40.4555 77.0755L41.5208 78.709L44.8712 76.5239ZM41.4293 77.8559L109.327 103.282L110.73 99.5361L42.8321 74.11L41.4293 77.8559ZM108.028 101.409V133.653H112.028V101.409H108.028ZM110.803 131.809L7.96179 88.6276L6.41321 92.3156L109.254 135.497L110.803 131.809ZM181.282 148H179.282V150H181.282V148ZM181.282 2.54545V0.54545H179.282V2.54545H181.282ZM269.563 8.9375L268.614 10.6981L268.621 10.7015L268.627 10.7048L269.563 8.9375ZM287.958 26.6222L286.22 27.6109L286.222 27.6156L287.958 26.6222ZM287.816 79.25L286.09 78.2402L286.088 78.2436L287.816 79.25ZM269.137 96.6506L270.044 98.4331L270.044 98.4331L269.137 96.6506ZM203.228 102.83H201.228V104.83H203.228V102.83ZM203.228 75.1307V73.1307H201.228V75.1307H203.228ZM247.049 72.3608L246.136 70.5814L246.126 70.5864L247.049 72.3608ZM255.217 64.6193L256.964 65.5927L256.97 65.5822L255.217 64.6193ZM255.217 41.2528L253.469 42.2263L253.475 42.237L255.217 41.2528ZM247.049 33.5824L246.155 35.3712L246.155 35.3712L247.049 33.5824ZM216.438 30.8835V28.8835H214.438V30.8835H216.438ZM216.438 148V150H218.438V148H216.438ZM183.282 148V2.54545H179.282V148H183.282ZM181.282 4.54545H241.367V0.54545H181.282V4.54545ZM241.367 4.54545C251.996 4.54545 261.055 6.62395 268.614 10.6981L270.512 7.1769C262.257 2.72832 252.519 0.54545 241.367 0.54545V4.54545ZM268.627 10.7048C276.257 14.747 282.105 20.3769 286.22 27.6109L289.697 25.6334C285.193 17.7159 278.778 11.556 270.499 7.17018L268.627 10.7048ZM286.222 27.6156C290.333 34.7982 292.421 43.205 292.421 52.9006H296.421C296.421 42.6151 294.201 33.5029 289.694 25.6287L286.222 27.6156ZM292.421 52.9006C292.421 62.6379 290.288 71.0619 286.09 78.2402L289.542 80.2598C294.151 72.3813 296.421 63.239 296.421 52.9006H292.421ZM286.088 78.2436C281.935 85.3755 276.002 90.914 268.23 94.868L270.044 98.4331C278.466 94.1485 284.985 88.0866 289.544 80.2564L286.088 78.2436ZM268.23 94.868C260.471 98.8158 251.183 100.83 240.302 100.83V104.83C251.674 104.83 261.61 102.724 270.044 98.4331L268.23 94.868ZM240.302 100.83H203.228V104.83H240.302V100.83ZM205.228 102.83V75.1307H201.228V102.83H205.228ZM203.228 77.1307H233.768V73.1307H203.228V77.1307ZM233.768 77.1307C239.292 77.1307 244.058 76.1702 247.972 74.1352L246.126 70.5864C242.938 72.2445 238.85 73.1307 233.768 73.1307V77.1307ZM247.962 74.1402C251.888 72.1257 254.912 69.2755 256.964 65.5927L253.469 63.6459C251.828 66.592 249.407 68.9027 246.136 70.5814L247.962 74.1402ZM256.97 65.5822C259.003 61.8812 259.987 57.6336 259.987 52.9006H255.987C255.987 57.0691 255.124 60.634 253.464 63.6564L256.97 65.5822ZM259.987 52.9006C259.987 48.126 259.005 43.8904 256.958 40.2687L253.475 42.237C255.122 45.1493 255.987 48.6789 255.987 52.9006H259.987ZM256.964 40.2794C254.909 36.5919 251.879 33.7612 247.943 31.7935L246.155 35.3712C249.416 37.0021 251.831 39.285 253.469 42.2262L256.964 40.2794ZM247.943 31.7935C243.996 29.8196 239.242 28.8835 233.768 28.8835V32.8835C238.805 32.8835 242.906 33.7467 246.155 35.3712L247.943 31.7935ZM233.768 28.8835H216.438V32.8835H233.768V28.8835ZM214.438 30.8835V148H218.438V30.8835H214.438ZM216.438 146H181.282V150H216.438V146ZM439.805 115.969L438.055 115.001L438.055 115.001L439.805 115.969ZM414.805 141.324L413.841 139.571L413.838 139.573L414.805 141.324ZM344.279 141.253L345.252 139.505L345.252 139.505L344.279 141.253ZM319.35 115.898L317.597 116.86L317.602 116.869L319.35 115.898ZM319.35 34.5767L317.6 33.6086L317.597 33.6143L319.35 34.5767ZM344.279 9.22159L345.246 10.9725L345.246 10.9725L344.279 9.22159ZM414.805 9.22159L413.838 10.9725L413.841 10.9744L414.805 9.22159ZM439.805 34.5767L438.055 35.5448L438.055 35.5448L439.805 34.5767ZM409.052 51.267L407.199 52.0191L407.203 52.0306L409.052 51.267ZM397.546 36.4233L396.426 38.0801L396.433 38.085L397.546 36.4233ZM361.609 36.4233L362.722 38.085L362.722 38.085L361.609 36.4233ZM350.032 51.267L348.183 50.5035L348.179 50.515L350.032 51.267ZM350.032 99.2784L348.179 100.03L348.183 100.042L350.032 99.2784ZM361.609 114.122L362.722 112.46L362.722 112.46L361.609 114.122ZM397.546 114.122L396.433 112.46L396.426 112.465L397.546 114.122ZM409.052 99.2784L407.203 98.5149L407.199 98.5264L409.052 99.2784ZM447.038 75.2727C447.038 91.0239 444.009 104.237 438.055 115.001L441.555 116.937C447.911 105.447 451.038 91.5292 451.038 75.2727H447.038ZM438.055 115.001C432.071 125.818 424.001 133.988 413.841 139.571L415.768 143.077C426.631 137.107 435.228 128.374 441.555 116.937L438.055 115.001ZM413.838 139.573C403.696 145.172 392.291 147.989 379.577 147.989V151.989C392.905 151.989 404.985 149.029 415.771 143.075L413.838 139.573ZM379.577 147.989C366.818 147.989 355.392 145.149 345.252 139.505L343.306 143C354.095 149.005 366.201 151.989 379.577 151.989V147.989ZM345.252 139.505C335.133 133.874 327.084 125.7 321.098 114.926L317.602 116.869C323.927 128.255 332.497 136.984 343.306 143L345.252 139.505ZM321.103 114.935C315.194 104.17 312.188 90.9777 312.188 75.2727H308.188C308.188 91.4807 311.291 105.372 317.597 116.86L321.103 114.935ZM312.188 75.2727C312.188 59.5193 315.194 46.3038 321.103 35.5391L317.597 33.6143C311.29 45.1034 308.188 59.0186 308.188 75.2727H312.188ZM321.1 35.5448C327.085 24.7254 335.133 16.5553 345.246 10.9725L343.313 7.47066C332.498 13.4409 323.925 22.1742 317.6 33.6086L321.1 35.5448ZM345.246 10.9725C355.387 5.37433 366.815 2.55681 379.577 2.55681V-1.44319C366.204 -1.44319 354.1 1.51582 343.313 7.47066L345.246 10.9725ZM379.577 2.55681C392.291 2.55681 403.696 5.37373 413.838 10.9725L415.771 7.47066C404.985 1.51641 392.905 -1.44319 379.577 -1.44319V2.55681ZM413.841 10.9744C424.001 16.5578 432.071 24.7277 438.055 35.5448L441.555 33.6086C435.228 22.1719 426.631 13.4384 415.768 7.46882L413.841 10.9744ZM438.055 35.5448C444.009 46.3083 447.038 59.5216 447.038 75.2727H451.038C451.038 59.0163 447.911 45.0989 441.555 33.6086L438.055 35.5448ZM415.1 75.2727C415.1 65.625 413.727 57.3468 410.9 50.5035L407.203 52.0306C409.774 58.2555 411.1 65.9811 411.1 75.2727H415.1ZM410.905 50.515C408.129 43.6741 404.063 38.3811 398.659 34.7616L396.433 38.085C401.067 41.189 404.672 45.7918 407.199 52.0191L410.905 50.515ZM398.666 34.7665C393.311 31.1455 386.916 29.3807 379.577 29.3807V33.3807C386.254 33.3807 391.838 34.9776 396.426 38.0801L398.666 34.7665ZM379.577 29.3807C372.283 29.3807 365.892 31.1471 360.496 34.7616L362.722 38.085C367.363 34.9759 372.952 33.3807 379.577 33.3807V29.3807ZM360.496 34.7616C355.095 38.3789 351.007 43.6676 348.183 50.5035L351.88 52.0306C354.455 45.7983 358.084 41.1912 362.722 38.085L360.496 34.7616ZM348.179 50.515C345.403 57.3546 344.055 65.6285 344.055 75.2727H348.055C348.055 65.9776 349.358 58.2477 351.885 52.0191L348.179 50.515ZM344.055 75.2727C344.055 84.917 345.403 93.1908 348.179 100.03L351.885 98.5264C349.358 92.2978 348.055 84.5679 348.055 75.2727H344.055ZM348.183 100.042C351.007 106.878 355.095 112.167 360.496 115.784L362.722 112.46C358.084 109.354 354.455 104.747 351.88 98.5149L348.183 100.042ZM360.496 115.784C365.892 119.398 372.283 121.165 379.577 121.165V117.165C372.952 117.165 367.363 115.569 362.722 112.46L360.496 115.784ZM379.577 121.165C386.916 121.165 393.311 119.4 398.666 115.779L396.426 112.465C391.838 115.568 386.254 117.165 379.577 117.165V121.165ZM398.659 115.784C404.063 112.164 408.129 106.871 410.905 100.03L407.199 98.5264C404.672 104.754 401.067 109.356 396.433 112.46L398.659 115.784ZM410.9 100.042C413.727 93.1986 415.1 84.9205 415.1 75.2727H411.1C411.1 84.5644 409.774 92.29 407.203 98.5149L410.9 100.042ZM469.563 148H467.563V150H469.563V148ZM469.563 2.54545V0.54545H467.563V2.54545H469.563ZM557.844 8.44034L556.954 10.2313L556.961 10.2345L556.967 10.2377L557.844 8.44034ZM576.239 25.2017L574.517 26.2192L574.52 26.2241L576.239 25.2017ZM576.097 76.6932L577.791 77.7573L577.794 77.7522L576.097 76.6932ZM557.347 92.7443L558.168 94.568L558.177 94.564L557.347 92.7443ZM490.586 98.2131H488.586V100.213H490.586V98.2131ZM490.586 70.5142V68.5142H488.586V70.5142H490.586ZM535.33 68.4545L536.052 70.32L536.065 70.3149L535.33 68.4545ZM543.498 62.0625L545.175 63.1525L545.179 63.1462L545.183 63.1398L543.498 62.0625ZM543.498 39.8324L541.797 40.8851L541.801 40.8912L541.805 40.8973L543.498 39.8324ZM535.33 33.1562L534.554 34.9995L534.564 35.0039L534.575 35.0081L535.33 33.1562ZM504.719 30.8835V28.8835H502.719V30.8835H504.719ZM504.719 148V150H506.719V148H504.719ZM551.452 81.5227L553.209 80.5658L552.64 79.5227H551.452V81.5227ZM587.674 148V150H591.041L589.43 147.043L587.674 148ZM549.322 148L547.558 148.942L548.123 150H549.322V148ZM513.81 81.5227V79.5227H510.475L512.046 82.4651L513.81 81.5227ZM471.563 148V2.54545H467.563V148H471.563ZM469.563 4.54545H529.648V0.54545H469.563V4.54545ZM529.648 4.54545C540.3 4.54545 549.381 6.46721 556.954 10.2313L558.735 6.64934C550.494 2.55362 540.777 0.54545 529.648 0.54545V4.54545ZM556.967 10.2377C564.587 13.9567 570.417 19.2802 574.517 26.2192L577.961 24.1842C573.444 16.5399 567.011 10.6891 558.722 6.64301L556.967 10.2377ZM574.52 26.2241C578.614 33.1075 580.702 41.3344 580.702 50.983H584.702C584.702 40.7451 582.482 31.7846 577.958 24.1793L574.52 26.2241ZM580.702 50.983C580.702 60.7738 578.567 68.9586 574.401 75.6342L577.794 77.7522C582.434 70.3179 584.702 61.3626 584.702 50.983H580.702ZM574.404 75.6291C570.224 82.2808 564.286 87.3808 556.517 90.9247L558.177 94.564C566.601 90.7214 573.164 85.1208 577.791 77.7573L574.404 75.6291ZM556.526 90.9207C548.743 94.4252 539.448 96.2131 528.583 96.2131V100.213C539.878 100.213 549.758 98.3551 558.168 94.568L556.526 90.9207ZM528.583 96.2131H490.586V100.213H528.583V96.2131ZM492.586 98.2131V70.5142H488.586V98.2131H492.586ZM490.586 72.5142H522.049V68.5142H490.586V72.5142ZM522.049 72.5142C527.509 72.5142 532.199 71.8095 536.052 70.32L534.609 66.5891C531.359 67.8458 527.195 68.5142 522.049 68.5142V72.5142ZM536.065 70.3149C539.993 68.7642 543.07 66.3898 545.175 63.1525L541.821 60.9725C540.232 63.417 537.865 65.3039 534.596 66.5942L536.065 70.3149ZM545.183 63.1398C547.29 59.8438 548.268 55.7459 548.268 50.983H544.268C544.268 55.2162 543.399 58.5047 541.813 60.9852L545.183 63.1398ZM548.268 50.983C548.268 46.2181 547.29 42.1039 545.191 38.7675L541.805 40.8973C543.399 43.4321 544.268 46.7516 544.268 50.983H548.268ZM545.198 38.7797C543.105 35.3984 540.031 32.9139 536.086 31.3044L534.575 35.0081C537.826 36.3342 540.197 38.3004 541.797 40.8851L545.198 38.7797ZM536.106 31.313C532.193 29.6653 527.484 28.8835 522.049 28.8835V32.8835C527.125 32.8835 531.27 33.6169 534.554 34.9995L536.106 31.313ZM522.049 28.8835H504.719V32.8835H522.049V28.8835ZM502.719 30.8835V148H506.719V30.8835H502.719ZM504.719 146H469.563V150H504.719V146ZM549.696 82.4796L585.918 148.957L589.43 147.043L553.209 80.5658L549.696 82.4796ZM587.674 146H549.322V150H587.674V146ZM551.086 147.058L515.574 80.5804L512.046 82.4651L547.558 148.942L551.086 147.058ZM513.81 83.5227H551.452V79.5227H513.81V83.5227ZM597.227 31.0966H595.227V33.0966H597.227V31.0966ZM597.227 2.54545V0.54545H595.227V2.54545H597.227ZM720.167 2.54545H722.167V0.54545H720.167V2.54545ZM720.167 31.0966V33.0966H722.167V31.0966H720.167ZM676.062 31.0966V29.0966H674.062V31.0966H676.062ZM676.062 148V150H678.062V148H676.062ZM641.403 148H639.403V150H641.403V148ZM641.403 31.0966H643.403V29.0966H641.403V31.0966ZM599.227 31.0966V2.54545H595.227V31.0966H599.227ZM597.227 4.54545H720.167V0.54545H597.227V4.54545ZM718.167 2.54545V31.0966H722.167V2.54545H718.167ZM720.167 29.0966H676.062V33.0966H720.167V29.0966ZM674.062 31.0966V148H678.062V31.0966H674.062ZM676.062 146H641.403V150H676.062V146ZM643.403 148V31.0966H639.403V148H643.403ZM641.403 29.0966H597.227V33.0966H641.403V29.0966ZM1.00852 348H-0.991477V350H1.00852V348ZM1.00852 202.545V200.545H-0.991477V202.545H1.00852ZM100.298 202.545H102.298V200.545H100.298V202.545ZM100.298 231.097V233.097H102.298V231.097H100.298ZM36.1648 231.097V229.097H34.1648V231.097H36.1648ZM36.1648 260.926H34.1648V262.926H36.1648V260.926ZM93.9773 260.926H95.9773V258.926H93.9773V260.926ZM93.9773 289.548V291.548H95.9773V289.548H93.9773ZM36.1648 289.548V287.548H34.1648V289.548H36.1648ZM36.1648 348V350H38.1648V348H36.1648ZM3.00852 348V202.545H-0.991477V348H3.00852ZM1.00852 204.545H100.298V200.545H1.00852V204.545ZM98.2983 202.545V231.097H102.298V202.545H98.2983ZM100.298 229.097H36.1648V233.097H100.298V229.097ZM34.1648 231.097V260.926H38.1648V231.097H34.1648ZM36.1648 262.926H93.9773V258.926H36.1648V262.926ZM91.9773 260.926V289.548H95.9773V260.926H91.9773ZM93.9773 287.548H36.1648V291.548H93.9773V287.548ZM34.1648 289.548V348H38.1648V289.548H34.1648ZM36.1648 346H1.00852V350H36.1648V346ZM246.055 315.969L244.305 315.001L244.305 315.001L246.055 315.969ZM221.055 341.324L220.091 339.571L220.088 339.573L221.055 341.324ZM150.529 341.253L151.502 339.505L151.502 339.505L150.529 341.253ZM125.6 315.898L123.847 316.86L123.852 316.869L125.6 315.898ZM125.6 234.577L123.85 233.609L123.847 233.614L125.6 234.577ZM150.529 209.222L151.496 210.973L151.496 210.973L150.529 209.222ZM221.055 209.222L220.088 210.973L220.091 210.974L221.055 209.222ZM246.055 234.577L244.305 235.545L244.305 235.545L246.055 234.577ZM215.302 251.267L213.449 252.019L213.453 252.031L215.302 251.267ZM203.796 236.423L202.676 238.08L202.683 238.085L203.796 236.423ZM167.859 236.423L168.972 238.085L168.972 238.085L167.859 236.423ZM156.282 251.267L154.433 250.504L154.429 250.515L156.282 251.267ZM156.282 299.278L154.429 300.03L154.433 300.042L156.282 299.278ZM167.859 314.122L168.972 312.46L168.972 312.46L167.859 314.122ZM203.796 314.122L202.683 312.46L202.676 312.465L203.796 314.122ZM215.302 299.278L213.453 298.515L213.449 298.526L215.302 299.278ZM253.288 275.273C253.288 291.024 250.259 304.237 244.305 315.001L247.805 316.937C254.161 305.447 257.288 291.529 257.288 275.273H253.288ZM244.305 315.001C238.321 325.818 230.251 333.988 220.091 339.571L222.018 343.077C232.881 337.107 241.478 328.374 247.805 316.937L244.305 315.001ZM220.088 339.573C209.946 345.172 198.541 347.989 185.827 347.989V351.989C199.155 351.989 211.235 349.029 222.021 343.075L220.088 339.573ZM185.827 347.989C173.068 347.989 161.642 345.149 151.502 339.505L149.556 343C160.345 349.005 172.451 351.989 185.827 351.989V347.989ZM151.502 339.505C141.383 333.874 133.334 325.7 127.348 314.926L123.852 316.869C130.177 328.255 138.747 336.984 149.556 343L151.502 339.505ZM127.353 314.935C121.444 304.17 118.438 290.978 118.438 275.273H114.438C114.438 291.481 117.541 305.372 123.847 316.86L127.353 314.935ZM118.438 275.273C118.438 259.519 121.444 246.304 127.353 235.539L123.847 233.614C117.54 245.103 114.438 259.019 114.438 275.273H118.438ZM127.35 235.545C133.335 224.725 141.383 216.555 151.496 210.973L149.563 207.471C138.748 213.441 130.175 222.174 123.85 233.609L127.35 235.545ZM151.496 210.973C161.637 205.374 173.065 202.557 185.827 202.557V198.557C172.454 198.557 160.35 201.516 149.563 207.471L151.496 210.973ZM185.827 202.557C198.541 202.557 209.946 205.374 220.088 210.973L222.021 207.471C211.235 201.516 199.155 198.557 185.827 198.557V202.557ZM220.091 210.974C230.251 216.558 238.321 224.728 244.305 235.545L247.805 233.609C241.478 222.172 232.881 213.438 222.018 207.469L220.091 210.974ZM244.305 235.545C250.259 246.308 253.288 259.522 253.288 275.273H257.288C257.288 259.016 254.161 245.099 247.805 233.609L244.305 235.545ZM221.35 275.273C221.35 265.625 219.977 257.347 217.15 250.504L213.453 252.031C216.024 258.255 217.35 265.981 217.35 275.273H221.35ZM217.155 250.515C214.379 243.674 210.313 238.381 204.909 234.762L202.683 238.085C207.317 241.189 210.922 245.792 213.449 252.019L217.155 250.515ZM204.916 234.767C199.561 231.146 193.166 229.381 185.827 229.381V233.381C192.504 233.381 198.088 234.978 202.676 238.08L204.916 234.767ZM185.827 229.381C178.533 229.381 172.142 231.147 166.746 234.762L168.972 238.085C173.613 234.976 179.202 233.381 185.827 233.381V229.381ZM166.746 234.762C161.345 238.379 157.257 243.668 154.433 250.504L158.13 252.031C160.705 245.798 164.334 241.191 168.972 238.085L166.746 234.762ZM154.429 250.515C151.653 257.355 150.305 265.628 150.305 275.273H154.305C154.305 265.978 155.608 258.248 158.135 252.019L154.429 250.515ZM150.305 275.273C150.305 284.917 151.653 293.191 154.429 300.03L158.135 298.526C155.608 292.298 154.305 284.568 154.305 275.273H150.305ZM154.433 300.042C157.257 306.878 161.345 312.167 166.746 315.784L168.972 312.46C164.334 309.354 160.705 304.747 158.13 298.515L154.433 300.042ZM166.746 315.784C172.142 319.398 178.533 321.165 185.827 321.165V317.165C179.202 317.165 173.613 315.569 168.972 312.46L166.746 315.784ZM185.827 321.165C193.166 321.165 199.561 319.4 204.916 315.779L202.676 312.465C198.088 315.568 192.504 317.165 185.827 317.165V321.165ZM204.909 315.784C210.313 312.164 214.379 306.871 217.155 300.03L213.449 298.526C210.922 304.754 207.317 309.356 202.683 312.46L204.909 315.784ZM217.15 300.042C219.977 293.199 221.35 284.92 221.35 275.273H217.35C217.35 284.564 216.024 292.29 213.453 298.515L217.15 300.042ZM275.813 348H273.813V350H275.813V348ZM275.813 202.545V200.545H273.813V202.545H275.813ZM310.969 202.545H312.969V200.545H310.969V202.545ZM310.969 319.449H308.969V321.449H310.969V319.449ZM371.481 319.449H373.481V317.449H371.481V319.449ZM371.481 348V350H373.481V348H371.481ZM277.813 348V202.545H273.813V348H277.813ZM275.813 204.545H310.969V200.545H275.813V204.545ZM308.969 202.545V319.449H312.969V202.545H308.969ZM310.969 321.449H371.481V317.449H310.969V321.449ZM369.481 319.449V348H373.481V319.449H369.481ZM371.481 346H275.813V350H371.481V346ZM424.837 202.545H426.837V200.545H424.837V202.545ZM424.837 348V350H426.837V348H424.837ZM389.68 348H387.68V350H389.68V348ZM389.68 202.545V200.545H387.68V202.545H389.68ZM422.837 202.545V348H426.837V202.545H422.837ZM424.837 346H389.68V350H424.837V346ZM391.68 348V202.545H387.68V348H391.68ZM389.68 204.545H424.837V200.545H389.68V204.545ZM574.961 315.969L573.211 315.001L573.211 315.001L574.961 315.969ZM549.961 341.324L548.998 339.571L548.994 339.573L549.961 341.324ZM479.435 341.253L480.408 339.505L480.408 339.505L479.435 341.253ZM454.506 315.898L452.753 316.86L452.758 316.869L454.506 315.898ZM454.506 234.577L452.756 233.609L452.753 233.614L454.506 234.577ZM479.435 209.222L480.402 210.973L480.402 210.973L479.435 209.222ZM549.961 209.222L548.994 210.973L548.998 210.974L549.961 209.222ZM574.961 234.577L573.211 235.545L573.211 235.545L574.961 234.577ZM544.208 251.267L542.355 252.019L542.36 252.031L544.208 251.267ZM532.702 236.423L531.582 238.08L531.589 238.085L532.702 236.423ZM496.765 236.423L497.878 238.085L497.878 238.085L496.765 236.423ZM485.188 251.267L483.34 250.504L483.335 250.515L485.188 251.267ZM485.188 299.278L483.335 300.03L483.34 300.042L485.188 299.278ZM496.765 314.122L497.878 312.46L497.878 312.46L496.765 314.122ZM532.702 314.122L531.589 312.46L531.582 312.465L532.702 314.122ZM544.208 299.278L542.36 298.515L542.355 298.526L544.208 299.278ZM582.194 275.273C582.194 291.024 579.165 304.237 573.211 315.001L576.711 316.937C583.067 305.447 586.194 291.529 586.194 275.273H582.194ZM573.211 315.001C567.227 325.818 559.158 333.988 548.998 339.571L550.924 343.077C561.787 337.107 570.384 328.374 576.711 316.937L573.211 315.001ZM548.994 339.573C538.852 345.172 527.447 347.989 514.734 347.989V351.989C528.062 351.989 540.142 349.029 550.928 343.075L548.994 339.573ZM514.734 347.989C501.974 347.989 490.548 345.149 480.408 339.505L478.463 343C489.251 349.005 501.357 351.989 514.734 351.989V347.989ZM480.408 339.505C470.289 333.874 462.24 325.7 456.255 314.926L452.758 316.869C459.083 328.255 467.654 336.984 478.463 343L480.408 339.505ZM456.26 314.935C450.35 304.17 447.344 290.978 447.344 275.273H443.344C443.344 291.481 446.447 305.372 452.753 316.86L456.26 314.935ZM447.344 275.273C447.344 259.519 450.35 246.304 456.26 235.539L452.753 233.614C446.446 245.103 443.344 259.019 443.344 275.273H447.344ZM456.256 235.545C462.242 224.725 470.289 216.555 480.402 210.973L478.469 207.471C467.654 213.441 459.082 222.174 452.756 233.609L456.256 235.545ZM480.402 210.973C490.543 205.374 501.971 202.557 514.734 202.557V198.557C501.36 198.557 489.256 201.516 478.469 207.471L480.402 210.973ZM514.734 202.557C527.447 202.557 538.852 205.374 548.994 210.973L550.928 207.471C540.142 201.516 528.062 198.557 514.734 198.557V202.557ZM548.998 210.974C559.158 216.558 567.227 224.728 573.211 235.545L576.711 233.609C570.384 222.172 561.787 213.438 550.924 207.469L548.998 210.974ZM573.211 235.545C579.165 246.308 582.194 259.522 582.194 275.273H586.194C586.194 259.016 583.067 245.099 576.711 233.609L573.211 235.545ZM550.256 275.273C550.256 265.625 548.883 257.347 546.057 250.504L542.36 252.031C544.931 258.255 546.256 265.981 546.256 275.273H550.256ZM546.061 250.515C543.285 243.674 539.219 238.381 533.815 234.762L531.589 238.085C536.224 241.189 539.828 245.792 542.355 252.019L546.061 250.515ZM533.823 234.767C528.468 231.146 522.072 229.381 514.734 229.381V233.381C521.411 233.381 526.994 234.978 531.582 238.08L533.823 234.767ZM514.734 229.381C507.439 229.381 501.048 231.147 495.652 234.762L497.878 238.085C502.52 234.976 508.108 233.381 514.734 233.381V229.381ZM495.652 234.762C490.251 238.379 486.163 243.668 483.34 250.504L487.037 252.031C489.611 245.798 493.24 241.191 497.878 238.085L495.652 234.762ZM483.335 250.515C480.559 257.355 479.211 265.628 479.211 275.273H483.211C483.211 265.978 484.514 258.248 487.041 252.019L483.335 250.515ZM479.211 275.273C479.211 284.917 480.559 293.191 483.335 300.03L487.041 298.526C484.514 292.298 483.211 284.568 483.211 275.273H479.211ZM483.34 300.042C486.163 306.878 490.251 312.167 495.652 315.784L497.878 312.46C493.24 309.354 489.611 304.747 487.037 298.515L483.34 300.042ZM495.652 315.784C501.048 319.398 507.439 321.165 514.734 321.165V317.165C508.108 317.165 502.52 315.569 497.878 312.46L495.652 315.784ZM514.734 321.165C522.072 321.165 528.468 319.4 533.823 315.779L531.582 312.465C526.994 315.568 521.411 317.165 514.734 317.165V321.165ZM533.815 315.784C539.219 312.164 543.285 306.871 546.061 300.03L542.355 298.526C539.828 304.754 536.224 309.356 531.589 312.46L533.815 315.784ZM546.057 300.042C548.883 293.199 550.256 284.92 550.256 275.273H546.256C546.256 284.564 544.931 292.29 542.36 298.515L546.057 300.042ZM715.018 195.727L716.949 196.247L717.627 193.727H715.018V195.727ZM668.143 369.875V371.875H669.676L670.074 370.395L668.143 369.875ZM638.526 369.875L636.595 369.355L635.917 371.875H638.526V369.875ZM685.401 195.727V193.727H683.868L683.47 195.207L685.401 195.727ZM713.086 195.207L666.211 369.355L670.074 370.395L716.949 196.247L713.086 195.207ZM668.143 367.875H638.526V371.875H668.143V367.875ZM640.458 370.395L687.333 196.247L683.47 195.207L636.595 369.355L640.458 370.395ZM685.401 197.727H715.018V193.727H685.401V197.727ZM836.982 304.108L837.756 305.952L838.982 305.437V304.108H836.982ZM734.141 347.29H732.141V350.299L734.915 349.134L734.141 347.29ZM734.141 315.045L733.439 313.172L732.141 313.659V315.045H734.141ZM802.038 289.619L803.747 290.659L806.755 285.718L801.337 287.746L802.038 289.619ZM801.044 291.253H799.044V298.385L802.752 292.293L801.044 291.253ZM801.044 287.489L802.731 286.415L799.044 280.621V287.489H801.044ZM802.038 289.051L801.339 290.925L806.93 293.013L803.726 287.977L802.038 289.051ZM734.141 263.696H732.141V265.084L733.441 265.57L734.141 263.696ZM734.141 231.381L734.915 229.537L732.141 228.372V231.381H734.141ZM836.982 274.562H838.982V273.233L837.756 272.718L836.982 274.562ZM836.207 302.264L733.366 345.446L734.915 349.134L837.756 305.952L836.207 302.264ZM736.141 347.29V315.045H732.141V347.29H736.141ZM734.842 316.918L802.74 291.492L801.337 287.746L733.439 313.172L734.842 316.918ZM800.33 288.579L799.336 290.213L802.752 292.293L803.747 290.659L800.33 288.579ZM803.044 291.253V287.489H799.044V291.253H803.044ZM799.357 288.562L800.351 290.125L803.726 287.977L802.731 286.415L799.357 288.562ZM802.738 287.178L734.84 261.822L733.441 265.57L801.339 290.925L802.738 287.178ZM736.141 263.696V231.381H732.141V263.696H736.141ZM733.366 233.225L836.207 276.407L837.756 272.718L734.915 229.537L733.366 233.225ZM834.982 274.562V304.108H838.982V274.562H834.982Z" fill="#2C5758" mask="url(#path-1-outside-1_303_100)"/>
</g>
<defs>
<filter id="filter0_d_303_100" x="0.708545" y="0.256885" width="846.573" height="379.918" filterUnits="userSpaceOnUse" color-interpolation-filters="sRGB">
<feFlood flood-opacity="0" result="BackgroundImageFix"/>
<feColorMatrix in="SourceAlpha" type="matrix" values="0 0 0 0 0 0 0 0 0 0 0 0 0 0 0 0 0 0 127 0" result="hardAlpha"/>
<feOffset dx="5" dy="5"/>
<feGaussianBlur stdDeviation="2.65"/>
<feComposite in2="hardAlpha" operator="out"/>
<feColorMatrix type="matrix" values="0 0 0 0 0 0 0 0 0 0 0 0 0 0 0 0 0 0 0.25 0"/>
<feBlend mode="normal" in2="BackgroundImageFix" result="effect1_dropShadow_303_100"/>
<feBlend mode="normal" in="SourceGraphic" in2="effect1_dropShadow_303_100" result="shape"/>
</filter>
</defs>
</svg>
