<svg xmlns="http://www.w3.org/2000/svg" xmlns:xlink="http://www.w3.org/1999/xlink" width="214.882" height="51.864" viewBox="0 0 214.882 51.864">
  <defs>
    <linearGradient id="linear-gradient" x1="49.001" y1="109.855" x2="49.937" y2="109.855" gradientUnits="objectBoundingBox">
      <stop offset="0" stop-color="#b5163a"/>
      <stop offset="0.519" stop-color="#9d1723"/>
      <stop offset="1" stop-color="#8c1912"/>
    </linearGradient>
  </defs>
  <g id="Groupe_38" data-name="Groupe 38" transform="translate(-36.898 -16.829)">
    <g id="Groupe_1" data-name="Groupe 1" transform="translate(36.898 36.827)">
      <path id="Tracé_1" data-name="Tracé 1" d="M38.341,37.276h6.68V67.6h-6.68Z" transform="translate(-38.341 -36.504)" fill="#12354d"/>
      <path id="Tracé_2" data-name="Tracé 2" d="M51.1,37.276h9.079L73.074,58.348h.086V37.276h6.683V67.6H71.1L57.87,46.013h-.086V67.6H51.1Z" transform="translate(-38.341 -36.504)" fill="#12354d"/>
      <path id="Tracé_3" data-name="Tracé 3" d="M113.463,65.457a24.207,24.207,0,0,1-6.165,2.228,31.394,31.394,0,0,1-6.555.685,18.666,18.666,0,0,1-6.554-1.114,14.98,14.98,0,0,1-5.181-3.19A14.494,14.494,0,0,1,85.6,59.033a18.424,18.424,0,0,1,0-13.191,14.484,14.484,0,0,1,3.406-5.033,15,15,0,0,1,5.181-3.192,18.712,18.712,0,0,1,6.554-1.113,24.258,24.258,0,0,1,6.7.879,13.156,13.156,0,0,1,5.376,3.018l-4.712,5.14a9.4,9.4,0,0,0-3.083-2.141,11.006,11.006,0,0,0-4.284-.728,9.943,9.943,0,0,0-3.877.728,8.7,8.7,0,0,0-2.974,2.034,8.893,8.893,0,0,0-1.907,3.106,11.832,11.832,0,0,0,0,7.816,8.927,8.927,0,0,0,1.907,3.084,8.683,8.683,0,0,0,2.974,2.034,9.907,9.907,0,0,0,3.877.729,12.752,12.752,0,0,0,3.769-.493A14.127,14.127,0,0,0,107.04,60.7V55.777H101.6V49.611h11.862Z" transform="translate(-38.341 -36.504)" fill="#12354d"/>
      <path id="Tracé_4" data-name="Tracé 4" d="M119.588,37.276h20.6v6.166H126.271V49.1H139.42v6.168H126.271v6.167h14.69V67.6H119.588Z" transform="translate(-38.341 -36.504)" fill="#12354d"/>
      <path id="Tracé_5" data-name="Tracé 5" d="M146.314,37.276h10.021a28.635,28.635,0,0,1,6.917.813,15.842,15.842,0,0,1,5.719,2.634,12.894,12.894,0,0,1,3.875,4.733,15.877,15.877,0,0,1,1.435,7.067,14.418,14.418,0,0,1-1.392,6.489,13.973,13.973,0,0,1-3.746,4.711,16.56,16.56,0,0,1-5.439,2.891,21.126,21.126,0,0,1-6.469.985H146.314Zm6.681,24.155h3.468a18.7,18.7,0,0,0,4.307-.471,9.218,9.218,0,0,0,3.446-1.562,7.533,7.533,0,0,0,2.293-2.87,10.212,10.212,0,0,0,.835-4.348,8.5,8.5,0,0,0-.835-3.876,7.764,7.764,0,0,0-2.25-2.72,9.834,9.834,0,0,0-3.318-1.6,14.745,14.745,0,0,0-4.006-.537h-3.94Z" transform="translate(-38.341 -36.504)" fill="#12354d"/>
      <path id="Tracé_6" data-name="Tracé 6" d="M178.737,37.276h6.68V67.6h-6.68Z" transform="translate(-38.341 -36.504)" fill="#12354d"/>
      <path id="Tracé_7" data-name="Tracé 7" d="M206.489,44.685a4.767,4.767,0,0,0-2.207-1.521,7.929,7.929,0,0,0-2.634-.492,6.978,6.978,0,0,0-1.5.171,5.788,5.788,0,0,0-1.456.535,3.2,3.2,0,0,0-1.115.964,2.445,2.445,0,0,0-.426,1.457,2.42,2.42,0,0,0,1.026,2.1,9.754,9.754,0,0,0,2.591,1.241q1.563.514,3.363,1.028a13.951,13.951,0,0,1,3.363,1.457,7.978,7.978,0,0,1,2.591,2.526,7.7,7.7,0,0,1,1.026,4.241,9.733,9.733,0,0,1-.941,4.411,8.97,8.97,0,0,1-2.548,3.127,10.846,10.846,0,0,1-3.726,1.842,16.411,16.411,0,0,1-4.475.6,16.215,16.215,0,0,1-5.484-.9,13.7,13.7,0,0,1-4.71-2.912l4.753-5.225a6.931,6.931,0,0,0,2.59,2.119,7.4,7.4,0,0,0,3.235.751,7.292,7.292,0,0,0,1.649-.193,5.365,5.365,0,0,0,1.5-.579,3.207,3.207,0,0,0,1.072-.985,2.463,2.463,0,0,0,.406-1.413,2.566,2.566,0,0,0-1.049-2.163,9.758,9.758,0,0,0-2.634-1.349q-1.586-.555-3.426-1.113a15.362,15.362,0,0,1-3.428-1.5,8.253,8.253,0,0,1-2.634-2.484,7.112,7.112,0,0,1-1.049-4.069,9.122,9.122,0,0,1,.963-4.282,9.321,9.321,0,0,1,2.571-3.084,11.143,11.143,0,0,1,3.706-1.863,15.147,15.147,0,0,1,4.324-.622,17.007,17.007,0,0,1,4.97.729,11.482,11.482,0,0,1,4.324,2.44Z" transform="translate(-38.341 -36.504)" fill="#12354d"/>
    </g>
    <path id="Tracé_8" data-name="Tracé 8" d="M250.752,30.009,239.72,18.977a8.46,8.46,0,0,0-11.951,0l-8.057,8.058a3.725,3.725,0,0,0,.141,5.482l3.521,3.521-3.41,3.411c-.037.037-.068.072-.106.11a3.637,3.637,0,0,0-.145,5.377l8.056,8.056a8.46,8.46,0,0,0,11.951,0L250.752,41.96A8.46,8.46,0,0,0,250.752,30.009Zm-2.812,2.812a4.478,4.478,0,0,1,0,6.327L236.908,50.18a4.48,4.48,0,0,1-6.327,0l-7.917-7.917,3.407-3.407,5.843,5.843a2.488,2.488,0,0,0,3.515,0l7.03-7.03a2.488,2.488,0,0,0,0-3.515l-6.884-6.884a2.488,2.488,0,0,0-3.515,0l-5.969,5.97-3.48-3.481,7.97-7.97a4.48,4.48,0,0,1,6.327,0Zm-14.122-1.684,4.774,4.774-4.92,4.921L228.9,36.058Z" transform="translate(-1.443 0.323)" fill="url(#linear-gradient)"/>
  </g>
</svg>
