<svg width="335" height="188" viewBox="0 0 335 188" fill="none" xmlns="http://www.w3.org/2000/svg">
<g clip-path="url(#clip0_297_100)">
<path d="M97.1451 182.837C90.8548 182.837 85.9123 177.731 85.9123 171.261C85.9123 164.792 90.861 159.723 97.1451 159.723C98.8156 159.773 100.457 160.17 101.967 160.889C103.476 161.608 104.82 162.632 105.913 163.898L109.033 159.867C105.871 156.664 101.573 154.844 97.0765 154.804C94.8972 154.764 92.7321 155.162 90.7095 155.976C88.6869 156.79 86.8482 158.002 85.3023 159.541C83.7564 161.08 82.5349 162.914 81.7103 164.935C80.8857 166.956 80.4747 169.122 80.5018 171.305C80.5018 180.731 87.6534 187.994 96.8706 187.994C101.482 187.873 105.861 185.937 109.058 182.606L105.907 178.949C103.603 181.339 100.46 182.734 97.1451 182.837Z" fill="black"/>
<path d="M129.689 154.942L115.792 187.763H121.321L124.335 180.356H140.204L143.218 187.763H148.885L135.156 154.942H129.689ZM126.313 175.431L132.248 160.848L138.182 175.431H126.313Z" fill="black"/>
<path d="M175.4 176.743L165.016 154.942H158.72V187.763H163.712V163.242L173.647 184.337H177.11L187.045 163.242L187.095 187.763H191.988V154.942H185.741L175.4 176.743Z" fill="black"/>
<path d="M218.503 154.942H205.935V187.763H211.239V177.874H218.478C226.391 177.874 230.959 173.555 230.959 166.149C230.959 159.023 226.416 154.942 218.503 154.942ZM218.279 172.905H211.264V159.917H218.279C223.134 159.917 225.879 161.973 225.879 166.286C225.904 170.743 223.134 172.905 218.279 172.905Z" fill="black"/>
<path d="M263.347 174.168C263.347 179.75 260.158 183.025 255.029 183.025C249.899 183.025 246.573 179.7 246.573 174.168V154.942H241.268V174.168C241.268 182.743 246.485 188 254.997 188C263.509 188 268.664 182.743 268.664 174.168V154.942H263.347V174.168Z" fill="black"/>
<path d="M286.686 163.336C286.686 161.129 288.715 159.911 291.816 159.911C294.194 159.911 297.613 160.804 301.033 162.961L303.236 158.085C299.977 155.897 296.145 154.723 292.222 154.71C285.388 154.71 280.758 158.223 280.758 163.848C280.758 175.524 297.751 171.449 297.751 178.762C297.751 181.293 295.548 182.75 291.86 182.75C288.49 182.75 284.44 181.056 281.201 177.962L278.911 182.75C282.386 186.048 286.979 187.906 291.766 187.95C298.693 187.95 303.623 184.337 303.623 178.481C303.685 166.667 286.686 170.511 286.686 163.336Z" fill="black"/>
<path d="M213.124 134.453C221.245 134.414 229.172 131.967 235.905 127.421C242.639 122.874 247.877 116.431 250.957 108.905C254.038 101.38 254.824 93.1086 253.216 85.136C251.608 77.1634 247.678 69.8466 241.922 64.1091C236.166 58.3717 228.842 54.4708 220.874 52.8987C212.906 51.3267 204.652 52.1541 197.154 55.2763C189.655 58.3986 183.248 63.6758 178.741 70.442C174.234 77.2081 171.83 85.1599 171.831 93.2936C171.843 98.712 172.921 104.075 175.003 109.076C177.085 114.077 180.13 118.619 183.965 122.441C187.799 126.263 192.348 129.291 197.351 131.352C202.355 133.413 207.714 134.467 213.124 134.453ZM213.124 71.7234C217.378 71.7432 221.53 73.0247 225.058 75.4061C228.585 77.7876 231.329 81.1623 232.943 85.1043C234.558 89.0463 234.97 93.3789 234.128 97.5552C233.286 101.732 231.227 105.565 228.213 108.57C225.198 111.576 221.361 113.62 217.188 114.444C213.014 115.268 208.69 114.835 204.762 113.2C200.834 111.565 197.477 108.801 195.116 105.257C192.755 101.713 191.495 97.548 191.495 93.2874C191.508 87.5561 193.793 82.0647 197.848 78.0208C201.903 73.977 207.396 71.7118 213.118 71.7234H213.124Z" fill="black"/>
<path d="M80.8451 134.453H100.502V94.45C100.502 82.2992 110.188 72.4485 122.132 72.4485C134.076 72.4485 143.761 82.2992 143.761 94.45V134.453H163.425V94.45C163.425 71.2484 144.935 52.4409 122.132 52.4409C99.3293 52.4409 80.8451 71.2547 80.8451 94.45V134.453Z" fill="black"/>
<path d="M36.2695 95.0062C36.2746 92.3496 35.7791 89.7159 34.8092 87.2432L21.4921 52.4409H0.33699L23.8885 113.951C31.2023 110.964 36.2695 103.663 36.2695 95.0062Z" fill="black"/>
<path d="M303.592 134.453L335 52.4409H313.839L282.43 134.453H303.592Z" fill="black"/>
<path d="M286.961 95.0062C286.969 92.3473 286.474 89.711 285.501 87.237L272.196 52.4409H251.028L274.58 113.945C281.894 110.964 286.961 103.663 286.961 95.0062Z" fill="black"/>
<path d="M63.1347 52.4409L11.3015 187.787H32.4628L84.296 52.4409H63.1347Z" fill="black"/>
<path d="M28.8496 23.4516C28.8496 28.8957 24.5375 32.0459 16.2689 32.0459H0V0.537598H15.3702C23.2332 0.537598 27.277 3.82532 27.277 8.75064C27.3029 10.1815 26.9233 11.5905 26.1822 12.8141C25.441 14.0376 24.3687 15.0257 23.0897 15.6636C26.6031 16.7887 28.8496 19.4889 28.8496 23.4516ZM7.23269 6.03171V13.4572H14.4716C18.0162 13.4572 19.9507 12.2071 19.9507 9.70696C19.9507 7.20679 18.0162 6.01921 14.4716 6.01921L7.23269 6.03171ZM21.5233 22.6828C21.5233 20.0014 19.5014 18.7513 15.7259 18.7513H7.23269V26.5518H15.7259C19.5014 26.5518 21.5233 25.383 21.5233 22.6828Z" fill="black"/>
<path d="M32.3942 16.2948C32.3942 6.93171 39.6768 0 49.6054 0C59.5339 0 66.8165 6.87546 66.8165 16.2948C66.8165 25.7142 59.4902 32.5834 49.6054 32.5834C39.7205 32.5834 32.3942 25.6267 32.3942 16.2948ZM59.4466 16.2948C59.4466 10.3069 55.2218 6.21291 49.6054 6.21291C43.989 6.21291 39.7642 10.3069 39.7642 16.2948C39.7642 22.2827 43.989 26.3768 49.6054 26.3768C55.2218 26.3768 59.4466 22.2765 59.4466 16.2948Z" fill="black"/>
<path d="M92.3587 32.0459L86.293 23.2954H79.572V32.0459H72.2956V0.537598H85.9123C94.312 0.537598 99.5727 4.91289 99.5727 11.9696C99.5727 16.6949 97.1888 20.1639 93.1013 21.9203L100.153 32.0459H92.3587ZM85.4942 6.48174H79.5595V17.4637H85.4942C89.9436 17.4637 92.1902 15.3948 92.1902 11.9696C92.1902 8.54438 89.9561 6.48174 85.4942 6.48174Z" fill="black"/>
<path d="M105.32 0.537598H119.605C129.895 0.537598 136.953 6.75051 136.953 16.2949C136.953 25.8393 129.895 32.0459 119.605 32.0459H105.32V0.537598ZM119.249 26.058C125.489 26.058 129.583 22.3078 129.583 16.2949C129.583 10.282 125.496 6.5255 119.249 6.5255H112.596V26.058H119.249Z" fill="black"/>
<path d="M166.782 26.1956V32.0459H142.445V0.537598H166.214V6.39424H149.677V13.2322H164.28V18.9013H149.677V26.1956H166.782Z" fill="black"/>
<path d="M193.292 25.2955H178.689L175.906 32.0459H168.417L182.465 0.537598H189.654L203.72 32.0459H196.081L193.292 25.2955ZM191.002 19.7576L186.009 7.69432L181.017 19.7576H191.002Z" fill="black"/>
<path d="M206.054 18.1825V0.537598H213.33V17.9138C213.33 23.9017 215.938 26.3768 220.344 26.3768C224.75 26.3768 227.352 23.8766 227.352 17.9138V0.537598H234.541V18.1825C234.541 27.4519 229.237 32.5585 220.294 32.5585C211.352 32.5585 206.054 27.4519 206.054 18.1825Z" fill="black"/>
<path d="M261.094 32.0459L253.5 21.1077L246.011 32.0459H237.686L249.325 16.0199L238.267 0.537598H246.535L253.768 10.757L260.851 0.537598H268.714L257.768 15.7511L269.5 32.0459H261.094Z" fill="black"/>
</g>
<defs>
<clipPath id="clip0_297_100">
<rect width="335" height="188" fill="white"/>
</clipPath>
</defs>
</svg>
