<svg width="268" height="150" viewBox="0 0 268 150" fill="none" xmlns="http://www.w3.org/2000/svg">
<path d="M77.7161 145.881C72.6838 145.881 68.7299 141.806 68.7299 136.645C68.7299 131.483 72.6888 127.439 77.7161 127.439C79.0525 127.479 80.366 127.795 81.5734 128.369C82.7808 128.942 83.8559 129.76 84.7304 130.77L87.2266 127.553C84.6971 124.998 81.2585 123.546 77.6612 123.514C75.9178 123.482 74.1857 123.8 72.5676 124.449C70.9496 125.098 69.4786 126.065 68.2419 127.293C67.0052 128.521 66.028 129.985 65.3683 131.597C64.7086 133.21 64.3798 134.938 64.4015 136.68C64.4015 144.2 70.1228 149.995 77.4965 149.995C81.186 149.899 84.6889 148.354 87.2466 145.696L84.7254 142.779C82.8826 144.685 80.3678 145.798 77.7161 145.881Z" fill="#00EAFF"/>
<path d="M103.751 123.624L92.6333 149.81H97.0565L99.4678 143.901H112.163L114.575 149.81H119.108L108.125 123.624H103.751ZM101.05 139.971L105.798 128.336L110.546 139.971H101.05Z" fill="#00EAFF"/>
<path d="M140.32 141.018L132.013 123.624H126.976V149.81H130.97V130.246L138.917 147.078H141.688L149.636 130.246L149.676 149.81H153.59V123.624H148.593L140.32 141.018Z" fill="#00EAFF"/>
<path d="M174.803 123.624H164.748V149.81H168.991V141.921H174.783C181.113 141.921 184.767 138.475 184.767 132.565C184.767 126.88 181.133 123.624 174.803 123.624ZM174.623 137.956H169.011V127.593H174.623C178.507 127.593 180.704 129.234 180.704 132.675C180.723 136.231 178.507 137.956 174.623 137.956Z" fill="#00EAFF"/>
<path d="M210.678 138.964C210.678 143.417 208.127 146.03 204.023 146.03C199.919 146.03 197.258 143.377 197.258 138.964V123.624H193.015V138.964C193.015 145.806 197.188 150 203.998 150C210.807 150 214.931 145.806 214.931 138.964V123.624H210.678V138.964Z" fill="#00EAFF"/>
<path d="M229.349 130.321C229.349 128.561 230.972 127.588 233.453 127.588C235.355 127.588 238.091 128.301 240.827 130.022L242.589 126.132C239.982 124.386 236.916 123.449 233.777 123.439C228.311 123.439 224.606 126.242 224.606 130.73C224.606 140.046 238.201 136.794 238.201 142.629C238.201 144.649 236.438 145.811 233.488 145.811C230.792 145.811 227.552 144.459 224.961 141.991L223.129 145.811C225.909 148.443 229.583 149.925 233.413 149.96C238.954 149.96 242.898 147.077 242.898 142.405C242.948 132.979 229.349 136.046 229.349 130.321Z" fill="#00EAFF"/>
<path d="M170.499 107.276C176.996 107.245 183.338 105.293 188.724 101.665C194.111 98.0376 198.301 92.8971 200.766 86.8926C203.231 80.8881 203.859 74.2888 202.573 67.9277C201.286 61.5665 198.142 55.7287 193.537 51.1509C188.933 46.5732 183.073 43.4607 176.699 42.2065C170.325 40.9522 163.722 41.6123 157.723 44.1035C151.724 46.5946 146.598 50.8052 142.993 56.2037C139.387 61.6022 137.464 67.9467 137.465 74.4364C137.475 78.7596 138.337 83.0386 140.002 87.0288C141.668 91.0191 144.104 94.6425 147.172 97.6921C150.24 100.742 153.879 103.158 157.881 104.802C161.884 106.447 166.171 107.287 170.499 107.276ZM170.499 57.2261C173.902 57.2419 177.224 58.2644 180.046 60.1645C182.868 62.0646 185.063 64.7571 186.355 67.9023C187.646 71.0476 187.976 74.5044 187.302 77.8366C186.629 81.1689 184.982 84.2271 182.57 86.6253C180.158 89.0235 177.089 90.6543 173.75 91.3117C170.411 91.9691 166.952 91.6238 163.81 90.3192C160.667 89.0147 157.982 86.8094 156.093 83.9818C154.204 81.1542 153.196 77.8309 153.196 74.4314C153.206 69.8586 155.035 65.4772 158.279 62.2507C161.522 59.0242 165.916 57.2169 170.494 57.2261H170.499Z" fill="#00EAFF"/>
<path d="M64.676 107.276H80.402V75.3592C80.402 65.6644 88.1501 57.8048 97.7055 57.8048C107.261 57.8048 115.009 65.6644 115.009 75.3592V107.276H130.74V75.3592C130.74 56.8473 115.948 41.8413 97.7055 41.8413C79.4634 41.8413 64.676 56.8523 64.676 75.3592V107.276Z" fill="#00EAFF"/>
<path d="M29.0156 75.803C29.0196 73.6834 28.6232 71.582 27.8473 69.6091L17.1936 41.8413H0.269531L19.1107 90.9187C24.9618 88.5349 29.0156 82.71 29.0156 75.803Z" fill="#00EAFF"/>
<path d="M242.873 107.276L268 41.8413H251.071L225.944 107.276H242.873Z" fill="#00EAFF"/>
<path d="M229.569 75.803C229.575 73.6815 229.179 71.5781 228.401 69.6041L217.757 41.8413H200.823L219.664 90.9137C225.515 88.5349 229.569 82.7101 229.569 75.803Z" fill="#00EAFF"/>
<path d="M50.5077 41.8413L9.04114 149.831H25.9702L67.4368 41.8413H50.5077Z" fill="#00EAFF"/>
<path d="M23.0797 18.7114C23.0797 23.0551 19.63 25.5686 13.0151 25.5686H0V0.428955H12.2962C18.5866 0.428955 21.8216 3.05213 21.8216 6.98192C21.8423 8.1236 21.5386 9.24776 20.9457 10.224C20.3528 11.2003 19.495 11.9886 18.4717 12.4976C21.2824 13.3952 23.0797 15.5496 23.0797 18.7114ZM5.78615 4.81256V10.7372H11.5773C14.4129 10.7372 15.9606 9.73975 15.9606 7.74493C15.9606 5.75012 14.4129 4.80258 11.5773 4.80258L5.78615 4.81256ZM17.2187 18.098C17.2187 15.9586 15.6011 14.9612 12.5808 14.9612H5.78615V21.185H12.5808C15.6011 21.185 17.2187 20.2524 17.2187 18.098Z" fill="#00EAFF"/>
<path d="M25.9154 13.0012C25.9154 5.53062 31.7415 0 39.6843 0C47.6272 0 53.4533 5.48574 53.4533 13.0012C53.4533 20.5167 47.5922 25.9974 39.6843 25.9974C31.7764 25.9974 25.9154 20.4468 25.9154 13.0012ZM47.5573 13.0012C47.5573 8.22362 44.1775 4.95711 39.6843 4.95711C35.1912 4.95711 31.8114 8.22362 31.8114 13.0012C31.8114 17.7788 35.1912 21.0453 39.6843 21.0453C44.1775 21.0453 47.5573 17.7738 47.5573 13.0012Z" fill="#00EAFF"/>
<path d="M73.887 25.5686L69.0344 18.5867H63.6576V25.5686H57.8365V0.428955H68.7299C75.4496 0.428955 79.6582 3.91988 79.6582 9.55024C79.6582 13.3204 77.7511 16.0882 74.4811 17.4896L80.1225 25.5686H73.887ZM68.3954 5.17162H63.6477V13.9338H68.3954C71.955 13.9338 73.7522 12.2831 73.7522 9.55024C73.7522 6.81734 71.9649 5.17162 68.3954 5.17162Z" fill="#00EAFF"/>
<path d="M84.2561 0.428955H95.6836C103.916 0.428955 109.562 5.38607 109.562 13.0013C109.562 20.6165 103.916 25.5686 95.6836 25.5686H84.2561V0.428955ZM95.3991 20.791C100.391 20.791 103.666 17.7988 103.666 13.0013C103.666 8.20374 100.396 5.20653 95.3991 5.20653H90.0772V20.791H95.3991Z" fill="#00EAFF"/>
<path d="M133.426 20.9007V25.5686H113.956V0.428955H132.972V5.10181H119.742V10.5576H131.424V15.0809H119.742V20.9007H133.426Z" fill="#00EAFF"/>
<path d="M154.633 20.1826H142.951L140.725 25.5686H134.734L145.972 0.428955H151.723L162.976 25.5686H156.865L154.633 20.1826ZM152.801 15.7641L148.807 6.13911L144.813 15.7641H152.801Z" fill="#00EAFF"/>
<path d="M164.843 14.5074V0.428955H170.664V14.2929C170.664 19.0705 172.751 21.0454 176.275 21.0454C179.8 21.0454 181.882 19.0505 181.882 14.2929V0.428955H187.633V14.5074C187.633 21.9031 183.389 25.9775 176.235 25.9775C169.081 25.9775 164.843 21.9031 164.843 14.5074Z" fill="#00EAFF"/>
<path d="M208.875 25.5686L202.8 16.8413L196.809 25.5686H190.149L199.46 12.7818L190.613 0.428955H197.228L203.014 8.58275L208.681 0.428955H214.971L206.214 12.5674L215.6 25.5686H208.875Z" fill="#00EAFF"/>
</svg>
